G04 #@! TF.GenerationSoftware,KiCad,Pcbnew,5.1.10-88a1d61d58~88~ubuntu18.04.1*
G04 #@! TF.CreationDate,2021-09-30T10:21:09+02:00*
G04 #@! TF.ProjectId,pmod_microphone_array_4x1,706d6f64-5f6d-4696-9372-6f70686f6e65,1.0.0*
G04 #@! TF.SameCoordinates,Original*
G04 #@! TF.FileFunction,Legend,Top*
G04 #@! TF.FilePolarity,Positive*
%FSLAX46Y46*%
G04 Gerber Fmt 4.6, Leading zero omitted, Abs format (unit mm)*
G04 Created by KiCad (PCBNEW 5.1.10-88a1d61d58~88~ubuntu18.04.1) date 2021-09-30 10:21:09*
%MOMM*%
%LPD*%
G01*
G04 APERTURE LIST*
%ADD10C,0.150000*%
%ADD11C,0.152400*%
%ADD12C,0.200000*%
%ADD13C,0.120000*%
%ADD14C,0.800000*%
%ADD15R,1.200000X1.200000*%
%ADD16C,1.200000*%
G04 APERTURE END LIST*
D10*
X31528000Y-69096428D02*
X32289904Y-69096428D01*
X31908952Y-69477380D02*
X31908952Y-68715476D01*
X32670857Y-68477380D02*
X33289904Y-68477380D01*
X32956571Y-68858333D01*
X33099428Y-68858333D01*
X33194666Y-68905952D01*
X33242285Y-68953571D01*
X33289904Y-69048809D01*
X33289904Y-69286904D01*
X33242285Y-69382142D01*
X33194666Y-69429761D01*
X33099428Y-69477380D01*
X32813714Y-69477380D01*
X32718476Y-69429761D01*
X32670857Y-69382142D01*
X33766095Y-69429761D02*
X33766095Y-69477380D01*
X33718476Y-69572619D01*
X33670857Y-69620238D01*
X34099428Y-68477380D02*
X34718476Y-68477380D01*
X34385142Y-68858333D01*
X34528000Y-68858333D01*
X34623238Y-68905952D01*
X34670857Y-68953571D01*
X34718476Y-69048809D01*
X34718476Y-69286904D01*
X34670857Y-69382142D01*
X34623238Y-69429761D01*
X34528000Y-69477380D01*
X34242285Y-69477380D01*
X34147047Y-69429761D01*
X34099428Y-69382142D01*
X35004190Y-68477380D02*
X35337523Y-69477380D01*
X35670857Y-68477380D01*
X32258095Y-66048000D02*
X32162857Y-66000380D01*
X32020000Y-66000380D01*
X31877142Y-66048000D01*
X31781904Y-66143238D01*
X31734285Y-66238476D01*
X31686666Y-66428952D01*
X31686666Y-66571809D01*
X31734285Y-66762285D01*
X31781904Y-66857523D01*
X31877142Y-66952761D01*
X32020000Y-67000380D01*
X32115238Y-67000380D01*
X32258095Y-66952761D01*
X32305714Y-66905142D01*
X32305714Y-66571809D01*
X32115238Y-66571809D01*
X32734285Y-67000380D02*
X32734285Y-66000380D01*
X33305714Y-67000380D01*
X33305714Y-66000380D01*
X33781904Y-67000380D02*
X33781904Y-66000380D01*
X34020000Y-66000380D01*
X34162857Y-66048000D01*
X34258095Y-66143238D01*
X34305714Y-66238476D01*
X34353333Y-66428952D01*
X34353333Y-66571809D01*
X34305714Y-66762285D01*
X34258095Y-66857523D01*
X34162857Y-66952761D01*
X34020000Y-67000380D01*
X33781904Y-67000380D01*
X33250285Y-64460380D02*
X33250285Y-63460380D01*
X33821714Y-64460380D01*
X33821714Y-63460380D01*
X34869333Y-64365142D02*
X34821714Y-64412761D01*
X34678857Y-64460380D01*
X34583619Y-64460380D01*
X34440761Y-64412761D01*
X34345523Y-64317523D01*
X34297904Y-64222285D01*
X34250285Y-64031809D01*
X34250285Y-63888952D01*
X34297904Y-63698476D01*
X34345523Y-63603238D01*
X34440761Y-63508000D01*
X34583619Y-63460380D01*
X34678857Y-63460380D01*
X34821714Y-63508000D01*
X34869333Y-63555619D01*
X33853523Y-61825142D02*
X33805904Y-61872761D01*
X33663047Y-61920380D01*
X33567809Y-61920380D01*
X33424952Y-61872761D01*
X33329714Y-61777523D01*
X33282095Y-61682285D01*
X33234476Y-61491809D01*
X33234476Y-61348952D01*
X33282095Y-61158476D01*
X33329714Y-61063238D01*
X33424952Y-60968000D01*
X33567809Y-60920380D01*
X33663047Y-60920380D01*
X33805904Y-60968000D01*
X33853523Y-61015619D01*
X34282095Y-61920380D02*
X34282095Y-60920380D01*
X34282095Y-61396571D02*
X34853523Y-61396571D01*
X34853523Y-61920380D02*
X34853523Y-60920380D01*
X35282095Y-61015619D02*
X35329714Y-60968000D01*
X35424952Y-60920380D01*
X35663047Y-60920380D01*
X35758285Y-60968000D01*
X35805904Y-61015619D01*
X35853523Y-61110857D01*
X35853523Y-61206095D01*
X35805904Y-61348952D01*
X35234476Y-61920380D01*
X35853523Y-61920380D01*
X32202523Y-59285142D02*
X32154904Y-59332761D01*
X32012047Y-59380380D01*
X31916809Y-59380380D01*
X31773952Y-59332761D01*
X31678714Y-59237523D01*
X31631095Y-59142285D01*
X31583476Y-58951809D01*
X31583476Y-58808952D01*
X31631095Y-58618476D01*
X31678714Y-58523238D01*
X31773952Y-58428000D01*
X31916809Y-58380380D01*
X32012047Y-58380380D01*
X32154904Y-58428000D01*
X32202523Y-58475619D01*
X32631095Y-59380380D02*
X32631095Y-58380380D01*
X32631095Y-58856571D02*
X33202523Y-58856571D01*
X33202523Y-59380380D02*
X33202523Y-58380380D01*
X34202523Y-59380380D02*
X33631095Y-59380380D01*
X33916809Y-59380380D02*
X33916809Y-58380380D01*
X33821571Y-58523238D01*
X33726333Y-58618476D01*
X33631095Y-58666095D01*
X32170761Y-56745142D02*
X32123142Y-56792761D01*
X31980285Y-56840380D01*
X31885047Y-56840380D01*
X31742190Y-56792761D01*
X31646952Y-56697523D01*
X31599333Y-56602285D01*
X31551714Y-56411809D01*
X31551714Y-56268952D01*
X31599333Y-56078476D01*
X31646952Y-55983238D01*
X31742190Y-55888000D01*
X31885047Y-55840380D01*
X31980285Y-55840380D01*
X32123142Y-55888000D01*
X32170761Y-55935619D01*
X33075523Y-56840380D02*
X32599333Y-56840380D01*
X32599333Y-55840380D01*
X33408857Y-56840380D02*
X33408857Y-55840380D01*
X33980285Y-56840380D02*
X33551714Y-56268952D01*
X33980285Y-55840380D02*
X33408857Y-56411809D01*
X211153571Y-65001142D02*
X211105952Y-65048761D01*
X210963095Y-65096380D01*
X210867857Y-65096380D01*
X210725000Y-65048761D01*
X210629761Y-64953523D01*
X210582142Y-64858285D01*
X210534523Y-64667809D01*
X210534523Y-64524952D01*
X210582142Y-64334476D01*
X210629761Y-64239238D01*
X210725000Y-64144000D01*
X210867857Y-64096380D01*
X210963095Y-64096380D01*
X211105952Y-64144000D01*
X211153571Y-64191619D01*
X211582142Y-65096380D02*
X211582142Y-64096380D01*
X211582142Y-64572571D02*
X212153571Y-64572571D01*
X212153571Y-65096380D02*
X212153571Y-64096380D01*
X212582142Y-64191619D02*
X212629761Y-64144000D01*
X212725000Y-64096380D01*
X212963095Y-64096380D01*
X213058333Y-64144000D01*
X213105952Y-64191619D01*
X213153571Y-64286857D01*
X213153571Y-64382095D01*
X213105952Y-64524952D01*
X212534523Y-65096380D01*
X213153571Y-65096380D01*
X214915476Y-65096380D02*
X214582142Y-64620190D01*
X214344047Y-65096380D02*
X214344047Y-64096380D01*
X214725000Y-64096380D01*
X214820238Y-64144000D01*
X214867857Y-64191619D01*
X214915476Y-64286857D01*
X214915476Y-64429714D01*
X214867857Y-64524952D01*
X214820238Y-64572571D01*
X214725000Y-64620190D01*
X214344047Y-64620190D01*
X153971809Y-64937142D02*
X153924190Y-64984761D01*
X153781333Y-65032380D01*
X153686095Y-65032380D01*
X153543238Y-64984761D01*
X153448000Y-64889523D01*
X153400380Y-64794285D01*
X153352761Y-64603809D01*
X153352761Y-64460952D01*
X153400380Y-64270476D01*
X153448000Y-64175238D01*
X153543238Y-64080000D01*
X153686095Y-64032380D01*
X153781333Y-64032380D01*
X153924190Y-64080000D01*
X153971809Y-64127619D01*
X154400380Y-65032380D02*
X154400380Y-64032380D01*
X154400380Y-64508571D02*
X154971809Y-64508571D01*
X154971809Y-65032380D02*
X154971809Y-64032380D01*
X155400380Y-64127619D02*
X155448000Y-64080000D01*
X155543238Y-64032380D01*
X155781333Y-64032380D01*
X155876571Y-64080000D01*
X155924190Y-64127619D01*
X155971809Y-64222857D01*
X155971809Y-64318095D01*
X155924190Y-64460952D01*
X155352761Y-65032380D01*
X155971809Y-65032380D01*
X157638476Y-65032380D02*
X157162285Y-65032380D01*
X157162285Y-64032380D01*
X96726571Y-64873142D02*
X96678952Y-64920761D01*
X96536095Y-64968380D01*
X96440857Y-64968380D01*
X96298000Y-64920761D01*
X96202761Y-64825523D01*
X96155142Y-64730285D01*
X96107523Y-64539809D01*
X96107523Y-64396952D01*
X96155142Y-64206476D01*
X96202761Y-64111238D01*
X96298000Y-64016000D01*
X96440857Y-63968380D01*
X96536095Y-63968380D01*
X96678952Y-64016000D01*
X96726571Y-64063619D01*
X97155142Y-64968380D02*
X97155142Y-63968380D01*
X97155142Y-64444571D02*
X97726571Y-64444571D01*
X97726571Y-64968380D02*
X97726571Y-63968380D01*
X98726571Y-64968380D02*
X98155142Y-64968380D01*
X98440857Y-64968380D02*
X98440857Y-63968380D01*
X98345619Y-64111238D01*
X98250380Y-64206476D01*
X98155142Y-64254095D01*
X100488476Y-64968380D02*
X100155142Y-64492190D01*
X99917047Y-64968380D02*
X99917047Y-63968380D01*
X100298000Y-63968380D01*
X100393238Y-64016000D01*
X100440857Y-64063619D01*
X100488476Y-64158857D01*
X100488476Y-64301714D01*
X100440857Y-64396952D01*
X100393238Y-64444571D01*
X100298000Y-64492190D01*
X99917047Y-64492190D01*
X39671809Y-64873142D02*
X39624190Y-64920761D01*
X39481333Y-64968380D01*
X39386095Y-64968380D01*
X39243238Y-64920761D01*
X39148000Y-64825523D01*
X39100380Y-64730285D01*
X39052761Y-64539809D01*
X39052761Y-64396952D01*
X39100380Y-64206476D01*
X39148000Y-64111238D01*
X39243238Y-64016000D01*
X39386095Y-63968380D01*
X39481333Y-63968380D01*
X39624190Y-64016000D01*
X39671809Y-64063619D01*
X40100380Y-64968380D02*
X40100380Y-63968380D01*
X40100380Y-64444571D02*
X40671809Y-64444571D01*
X40671809Y-64968380D02*
X40671809Y-63968380D01*
X41671809Y-64968380D02*
X41100380Y-64968380D01*
X41386095Y-64968380D02*
X41386095Y-63968380D01*
X41290857Y-64111238D01*
X41195619Y-64206476D01*
X41100380Y-64254095D01*
X43338476Y-64968380D02*
X42862285Y-64968380D01*
X42862285Y-63968380D01*
D11*
X60443857Y-55780819D02*
X59960047Y-55780819D01*
X59911666Y-56264628D01*
X59960047Y-56216247D01*
X60056809Y-56167866D01*
X60298714Y-56167866D01*
X60395476Y-56216247D01*
X60443857Y-56264628D01*
X60492238Y-56361390D01*
X60492238Y-56603295D01*
X60443857Y-56700057D01*
X60395476Y-56748438D01*
X60298714Y-56796819D01*
X60056809Y-56796819D01*
X59960047Y-56748438D01*
X59911666Y-56700057D01*
X60830904Y-55780819D02*
X61508238Y-55780819D01*
X61072809Y-56796819D01*
X61943666Y-56748438D02*
X61943666Y-56796819D01*
X61895285Y-56893580D01*
X61846904Y-56941961D01*
X62911285Y-56796819D02*
X62330714Y-56796819D01*
X62620999Y-56796819D02*
X62620999Y-55780819D01*
X62524238Y-55925961D01*
X62427476Y-56022723D01*
X62330714Y-56071104D01*
X63249952Y-55780819D02*
X63927285Y-55780819D01*
X63491857Y-56796819D01*
X65088428Y-56796819D02*
X65088428Y-56119485D01*
X65088428Y-56216247D02*
X65136809Y-56167866D01*
X65233571Y-56119485D01*
X65378714Y-56119485D01*
X65475476Y-56167866D01*
X65523857Y-56264628D01*
X65523857Y-56796819D01*
X65523857Y-56264628D02*
X65572238Y-56167866D01*
X65668999Y-56119485D01*
X65814142Y-56119485D01*
X65910904Y-56167866D01*
X65959285Y-56264628D01*
X65959285Y-56796819D01*
X66443095Y-56796819D02*
X66443095Y-56119485D01*
X66443095Y-56216247D02*
X66491476Y-56167866D01*
X66588238Y-56119485D01*
X66733380Y-56119485D01*
X66830142Y-56167866D01*
X66878523Y-56264628D01*
X66878523Y-56796819D01*
X66878523Y-56264628D02*
X66926904Y-56167866D01*
X67023666Y-56119485D01*
X67168809Y-56119485D01*
X67265571Y-56167866D01*
X67313952Y-56264628D01*
X67313952Y-56796819D01*
X67846142Y-56748438D02*
X67846142Y-56796819D01*
X67797761Y-56893580D01*
X67749380Y-56941961D01*
X69200809Y-56119485D02*
X68958904Y-56796819D01*
X68958904Y-55780819D02*
X69055666Y-55780819D01*
X69104047Y-55829200D01*
X69200809Y-56119485D01*
X69442714Y-56796819D01*
X70555476Y-55732438D02*
X69684619Y-57038723D01*
X70845761Y-55877580D02*
X70894142Y-55829200D01*
X70990904Y-55780819D01*
X71232809Y-55780819D01*
X71329571Y-55829200D01*
X71377952Y-55877580D01*
X71426333Y-55974342D01*
X71426333Y-56071104D01*
X71377952Y-56216247D01*
X70797380Y-56796819D01*
X71426333Y-56796819D01*
X72490714Y-56119485D02*
X72877761Y-56119485D01*
X72635857Y-56796819D02*
X72635857Y-55925961D01*
X72684238Y-55829200D01*
X72781000Y-55780819D01*
X72877761Y-55780819D01*
X73361571Y-56796819D02*
X73264809Y-56748438D01*
X73216428Y-56700057D01*
X73168047Y-56603295D01*
X73168047Y-56313009D01*
X73216428Y-56216247D01*
X73264809Y-56167866D01*
X73361571Y-56119485D01*
X73506714Y-56119485D01*
X73603476Y-56167866D01*
X73651857Y-56216247D01*
X73700238Y-56313009D01*
X73700238Y-56603295D01*
X73651857Y-56700057D01*
X73603476Y-56748438D01*
X73506714Y-56796819D01*
X73361571Y-56796819D01*
X74135666Y-56796819D02*
X74135666Y-56119485D01*
X74135666Y-56313009D02*
X74184047Y-56216247D01*
X74232428Y-56167866D01*
X74329190Y-56119485D01*
X74425952Y-56119485D01*
X75441952Y-55780819D02*
X76070904Y-55780819D01*
X75732238Y-56167866D01*
X75877380Y-56167866D01*
X75974142Y-56216247D01*
X76022523Y-56264628D01*
X76070904Y-56361390D01*
X76070904Y-56603295D01*
X76022523Y-56700057D01*
X75974142Y-56748438D01*
X75877380Y-56796819D01*
X75587095Y-56796819D01*
X75490333Y-56748438D01*
X75441952Y-56700057D01*
X77280428Y-56796819D02*
X77280428Y-55780819D01*
X77377190Y-56409771D02*
X77667476Y-56796819D01*
X77667476Y-56119485D02*
X77280428Y-56506533D01*
X78102904Y-56796819D02*
X78102904Y-55780819D01*
X78102904Y-56264628D02*
X78683476Y-56264628D01*
X78683476Y-56796819D02*
X78683476Y-55780819D01*
X79070523Y-56119485D02*
X79602714Y-56119485D01*
X79070523Y-56796819D01*
X79602714Y-56796819D01*
X41148000Y-57658000D02*
X98318000Y-57658000D01*
X41148000Y-62700000D02*
X41148000Y-57071579D01*
X98318000Y-62700000D02*
X98318000Y-57071579D01*
X98318000Y-57658000D02*
X97191496Y-58244421D01*
X98318000Y-57658000D02*
X97191496Y-57071579D01*
X41148000Y-57658000D02*
X42274504Y-58244421D01*
X41148000Y-57658000D02*
X42274504Y-57071579D01*
D10*
X199979595Y-69985380D02*
X199979595Y-68985380D01*
X200360547Y-68985380D01*
X200455785Y-69033000D01*
X200503404Y-69080619D01*
X200551023Y-69175857D01*
X200551023Y-69318714D01*
X200503404Y-69413952D01*
X200455785Y-69461571D01*
X200360547Y-69509190D01*
X199979595Y-69509190D01*
X200979595Y-69985380D02*
X200979595Y-69318714D01*
X200979595Y-69413952D02*
X201027214Y-69366333D01*
X201122452Y-69318714D01*
X201265309Y-69318714D01*
X201360547Y-69366333D01*
X201408166Y-69461571D01*
X201408166Y-69985380D01*
X201408166Y-69461571D02*
X201455785Y-69366333D01*
X201551023Y-69318714D01*
X201693880Y-69318714D01*
X201789119Y-69366333D01*
X201836738Y-69461571D01*
X201836738Y-69985380D01*
X202455785Y-69985380D02*
X202360547Y-69937761D01*
X202312928Y-69890142D01*
X202265309Y-69794904D01*
X202265309Y-69509190D01*
X202312928Y-69413952D01*
X202360547Y-69366333D01*
X202455785Y-69318714D01*
X202598642Y-69318714D01*
X202693880Y-69366333D01*
X202741500Y-69413952D01*
X202789119Y-69509190D01*
X202789119Y-69794904D01*
X202741500Y-69890142D01*
X202693880Y-69937761D01*
X202598642Y-69985380D01*
X202455785Y-69985380D01*
X203646261Y-69985380D02*
X203646261Y-68985380D01*
X203646261Y-69937761D02*
X203551023Y-69985380D01*
X203360547Y-69985380D01*
X203265309Y-69937761D01*
X203217690Y-69890142D01*
X203170071Y-69794904D01*
X203170071Y-69509190D01*
X203217690Y-69413952D01*
X203265309Y-69366333D01*
X203360547Y-69318714D01*
X203551023Y-69318714D01*
X203646261Y-69366333D01*
X204884357Y-69985380D02*
X204884357Y-68985380D01*
X205265309Y-68985380D01*
X205360547Y-69033000D01*
X205408166Y-69080619D01*
X205455785Y-69175857D01*
X205455785Y-69318714D01*
X205408166Y-69413952D01*
X205360547Y-69461571D01*
X205265309Y-69509190D01*
X204884357Y-69509190D01*
X205884357Y-69985380D02*
X205884357Y-68985380D01*
X206122452Y-68985380D01*
X206265309Y-69033000D01*
X206360547Y-69128238D01*
X206408166Y-69223476D01*
X206455785Y-69413952D01*
X206455785Y-69556809D01*
X206408166Y-69747285D01*
X206360547Y-69842523D01*
X206265309Y-69937761D01*
X206122452Y-69985380D01*
X205884357Y-69985380D01*
X206884357Y-69985380D02*
X206884357Y-68985380D01*
X207217690Y-69699666D01*
X207551023Y-68985380D01*
X207551023Y-69985380D01*
X208789119Y-69985380D02*
X208789119Y-69318714D01*
X208789119Y-69413952D02*
X208836738Y-69366333D01*
X208931976Y-69318714D01*
X209074833Y-69318714D01*
X209170071Y-69366333D01*
X209217690Y-69461571D01*
X209217690Y-69985380D01*
X209217690Y-69461571D02*
X209265309Y-69366333D01*
X209360547Y-69318714D01*
X209503404Y-69318714D01*
X209598642Y-69366333D01*
X209646261Y-69461571D01*
X209646261Y-69985380D01*
X210122452Y-69985380D02*
X210122452Y-69318714D01*
X210122452Y-68985380D02*
X210074833Y-69033000D01*
X210122452Y-69080619D01*
X210170071Y-69033000D01*
X210122452Y-68985380D01*
X210122452Y-69080619D01*
X211027214Y-69937761D02*
X210931976Y-69985380D01*
X210741500Y-69985380D01*
X210646261Y-69937761D01*
X210598642Y-69890142D01*
X210551023Y-69794904D01*
X210551023Y-69509190D01*
X210598642Y-69413952D01*
X210646261Y-69366333D01*
X210741500Y-69318714D01*
X210931976Y-69318714D01*
X211027214Y-69366333D01*
X211455785Y-69985380D02*
X211455785Y-69318714D01*
X211455785Y-69509190D02*
X211503404Y-69413952D01*
X211551023Y-69366333D01*
X211646261Y-69318714D01*
X211741500Y-69318714D01*
X212217690Y-69985380D02*
X212122452Y-69937761D01*
X212074833Y-69890142D01*
X212027214Y-69794904D01*
X212027214Y-69509190D01*
X212074833Y-69413952D01*
X212122452Y-69366333D01*
X212217690Y-69318714D01*
X212360547Y-69318714D01*
X212455785Y-69366333D01*
X212503404Y-69413952D01*
X212551023Y-69509190D01*
X212551023Y-69794904D01*
X212503404Y-69890142D01*
X212455785Y-69937761D01*
X212360547Y-69985380D01*
X212217690Y-69985380D01*
X212979595Y-69318714D02*
X212979595Y-70318714D01*
X212979595Y-69366333D02*
X213074833Y-69318714D01*
X213265309Y-69318714D01*
X213360547Y-69366333D01*
X213408166Y-69413952D01*
X213455785Y-69509190D01*
X213455785Y-69794904D01*
X213408166Y-69890142D01*
X213360547Y-69937761D01*
X213265309Y-69985380D01*
X213074833Y-69985380D01*
X212979595Y-69937761D01*
X213884357Y-69985380D02*
X213884357Y-68985380D01*
X214312928Y-69985380D02*
X214312928Y-69461571D01*
X214265309Y-69366333D01*
X214170071Y-69318714D01*
X214027214Y-69318714D01*
X213931976Y-69366333D01*
X213884357Y-69413952D01*
X214931976Y-69985380D02*
X214836738Y-69937761D01*
X214789119Y-69890142D01*
X214741500Y-69794904D01*
X214741500Y-69509190D01*
X214789119Y-69413952D01*
X214836738Y-69366333D01*
X214931976Y-69318714D01*
X215074833Y-69318714D01*
X215170071Y-69366333D01*
X215217690Y-69413952D01*
X215265309Y-69509190D01*
X215265309Y-69794904D01*
X215217690Y-69890142D01*
X215170071Y-69937761D01*
X215074833Y-69985380D01*
X214931976Y-69985380D01*
X215693880Y-69318714D02*
X215693880Y-69985380D01*
X215693880Y-69413952D02*
X215741500Y-69366333D01*
X215836738Y-69318714D01*
X215979595Y-69318714D01*
X216074833Y-69366333D01*
X216122452Y-69461571D01*
X216122452Y-69985380D01*
X216979595Y-69937761D02*
X216884357Y-69985380D01*
X216693880Y-69985380D01*
X216598642Y-69937761D01*
X216551023Y-69842523D01*
X216551023Y-69461571D01*
X216598642Y-69366333D01*
X216693880Y-69318714D01*
X216884357Y-69318714D01*
X216979595Y-69366333D01*
X217027214Y-69461571D01*
X217027214Y-69556809D01*
X216551023Y-69652047D01*
X218646261Y-69985380D02*
X218646261Y-69461571D01*
X218598642Y-69366333D01*
X218503404Y-69318714D01*
X218312928Y-69318714D01*
X218217690Y-69366333D01*
X218646261Y-69937761D02*
X218551023Y-69985380D01*
X218312928Y-69985380D01*
X218217690Y-69937761D01*
X218170071Y-69842523D01*
X218170071Y-69747285D01*
X218217690Y-69652047D01*
X218312928Y-69604428D01*
X218551023Y-69604428D01*
X218646261Y-69556809D01*
X219122452Y-69985380D02*
X219122452Y-69318714D01*
X219122452Y-69509190D02*
X219170071Y-69413952D01*
X219217690Y-69366333D01*
X219312928Y-69318714D01*
X219408166Y-69318714D01*
X219741500Y-69985380D02*
X219741500Y-69318714D01*
X219741500Y-69509190D02*
X219789119Y-69413952D01*
X219836738Y-69366333D01*
X219931976Y-69318714D01*
X220027214Y-69318714D01*
X220789119Y-69985380D02*
X220789119Y-69461571D01*
X220741500Y-69366333D01*
X220646261Y-69318714D01*
X220455785Y-69318714D01*
X220360547Y-69366333D01*
X220789119Y-69937761D02*
X220693880Y-69985380D01*
X220455785Y-69985380D01*
X220360547Y-69937761D01*
X220312928Y-69842523D01*
X220312928Y-69747285D01*
X220360547Y-69652047D01*
X220455785Y-69604428D01*
X220693880Y-69604428D01*
X220789119Y-69556809D01*
X221170071Y-69318714D02*
X221408166Y-69985380D01*
X221646261Y-69318714D02*
X221408166Y-69985380D01*
X221312928Y-70223476D01*
X221265309Y-70271095D01*
X221170071Y-70318714D01*
X223217690Y-69318714D02*
X223217690Y-69985380D01*
X222979595Y-68937761D02*
X222741500Y-69652047D01*
X223360547Y-69652047D01*
X223646261Y-69985380D02*
X224170071Y-69318714D01*
X223646261Y-69318714D02*
X224170071Y-69985380D01*
X225074833Y-69985380D02*
X224503404Y-69985380D01*
X224789119Y-69985380D02*
X224789119Y-68985380D01*
X224693880Y-69128238D01*
X224598642Y-69223476D01*
X224503404Y-69271095D01*
X199979595Y-71635380D02*
X199979595Y-70635380D01*
X200312928Y-71349666D01*
X200646261Y-70635380D01*
X200646261Y-71635380D01*
X201551023Y-71635380D02*
X201551023Y-71111571D01*
X201503404Y-71016333D01*
X201408166Y-70968714D01*
X201217690Y-70968714D01*
X201122452Y-71016333D01*
X201551023Y-71587761D02*
X201455785Y-71635380D01*
X201217690Y-71635380D01*
X201122452Y-71587761D01*
X201074833Y-71492523D01*
X201074833Y-71397285D01*
X201122452Y-71302047D01*
X201217690Y-71254428D01*
X201455785Y-71254428D01*
X201551023Y-71206809D01*
X202027214Y-71635380D02*
X202027214Y-70968714D01*
X202027214Y-71159190D02*
X202074833Y-71063952D01*
X202122452Y-71016333D01*
X202217690Y-70968714D01*
X202312928Y-70968714D01*
X203074833Y-71587761D02*
X202979595Y-71635380D01*
X202789119Y-71635380D01*
X202693880Y-71587761D01*
X202646261Y-71540142D01*
X202598642Y-71444904D01*
X202598642Y-71159190D01*
X202646261Y-71063952D01*
X202693880Y-71016333D01*
X202789119Y-70968714D01*
X202979595Y-70968714D01*
X203074833Y-71016333D01*
X203503404Y-71635380D02*
X203503404Y-70968714D01*
X203503404Y-70635380D02*
X203455785Y-70683000D01*
X203503404Y-70730619D01*
X203551023Y-70683000D01*
X203503404Y-70635380D01*
X203503404Y-70730619D01*
X203979595Y-70968714D02*
X203979595Y-71635380D01*
X203979595Y-71063952D02*
X204027214Y-71016333D01*
X204122452Y-70968714D01*
X204265309Y-70968714D01*
X204360547Y-71016333D01*
X204408166Y-71111571D01*
X204408166Y-71635380D01*
X205551023Y-70635380D02*
X205789119Y-71635380D01*
X205979595Y-70921095D01*
X206170071Y-71635380D01*
X206408166Y-70635380D01*
X207217690Y-71635380D02*
X207217690Y-71111571D01*
X207170071Y-71016333D01*
X207074833Y-70968714D01*
X206884357Y-70968714D01*
X206789119Y-71016333D01*
X207217690Y-71587761D02*
X207122452Y-71635380D01*
X206884357Y-71635380D01*
X206789119Y-71587761D01*
X206741500Y-71492523D01*
X206741500Y-71397285D01*
X206789119Y-71302047D01*
X206884357Y-71254428D01*
X207122452Y-71254428D01*
X207217690Y-71206809D01*
X208122452Y-71587761D02*
X208027214Y-71635380D01*
X207836738Y-71635380D01*
X207741500Y-71587761D01*
X207693880Y-71540142D01*
X207646261Y-71444904D01*
X207646261Y-71159190D01*
X207693880Y-71063952D01*
X207741500Y-71016333D01*
X207836738Y-70968714D01*
X208027214Y-70968714D01*
X208122452Y-71016333D01*
X208551023Y-71635380D02*
X208551023Y-70635380D01*
X208979595Y-71635380D02*
X208979595Y-71111571D01*
X208931976Y-71016333D01*
X208836738Y-70968714D01*
X208693880Y-70968714D01*
X208598642Y-71016333D01*
X208551023Y-71063952D01*
X209598642Y-71635380D02*
X209503404Y-71587761D01*
X209455785Y-71540142D01*
X209408166Y-71444904D01*
X209408166Y-71159190D01*
X209455785Y-71063952D01*
X209503404Y-71016333D01*
X209598642Y-70968714D01*
X209741500Y-70968714D01*
X209836738Y-71016333D01*
X209884357Y-71063952D01*
X209931976Y-71159190D01*
X209931976Y-71444904D01*
X209884357Y-71540142D01*
X209836738Y-71587761D01*
X209741500Y-71635380D01*
X209598642Y-71635380D01*
X210265309Y-70968714D02*
X210455785Y-71635380D01*
X210646261Y-71159190D01*
X210836738Y-71635380D01*
X211027214Y-70968714D01*
X211408166Y-71635380D02*
X211408166Y-70968714D01*
X211408166Y-70635380D02*
X211360547Y-70683000D01*
X211408166Y-70730619D01*
X211455785Y-70683000D01*
X211408166Y-70635380D01*
X211408166Y-70730619D01*
X212312928Y-71635380D02*
X212312928Y-71111571D01*
X212265309Y-71016333D01*
X212170071Y-70968714D01*
X211979595Y-70968714D01*
X211884357Y-71016333D01*
X212312928Y-71587761D02*
X212217690Y-71635380D01*
X211979595Y-71635380D01*
X211884357Y-71587761D01*
X211836738Y-71492523D01*
X211836738Y-71397285D01*
X211884357Y-71302047D01*
X211979595Y-71254428D01*
X212217690Y-71254428D01*
X212312928Y-71206809D01*
X212789119Y-71635380D02*
X212789119Y-70635380D01*
X212884357Y-71254428D02*
X213170071Y-71635380D01*
X213170071Y-70968714D02*
X212789119Y-71349666D01*
X213646261Y-71587761D02*
X213646261Y-71635380D01*
X213598642Y-71730619D01*
X213551023Y-71778238D01*
X214836738Y-71635380D02*
X214836738Y-70635380D01*
X215217690Y-70635380D01*
X215312928Y-70683000D01*
X215360547Y-70730619D01*
X215408166Y-70825857D01*
X215408166Y-70968714D01*
X215360547Y-71063952D01*
X215312928Y-71111571D01*
X215217690Y-71159190D01*
X214836738Y-71159190D01*
X215979595Y-71635380D02*
X215884357Y-71587761D01*
X215836738Y-71540142D01*
X215789119Y-71444904D01*
X215789119Y-71159190D01*
X215836738Y-71063952D01*
X215884357Y-71016333D01*
X215979595Y-70968714D01*
X216122452Y-70968714D01*
X216217690Y-71016333D01*
X216265309Y-71063952D01*
X216312928Y-71159190D01*
X216312928Y-71444904D01*
X216265309Y-71540142D01*
X216217690Y-71587761D01*
X216122452Y-71635380D01*
X215979595Y-71635380D01*
X216884357Y-71635380D02*
X216789119Y-71587761D01*
X216741500Y-71492523D01*
X216741500Y-70635380D01*
X217693880Y-71635380D02*
X217693880Y-71111571D01*
X217646261Y-71016333D01*
X217551023Y-70968714D01*
X217360547Y-70968714D01*
X217265309Y-71016333D01*
X217693880Y-71587761D02*
X217598642Y-71635380D01*
X217360547Y-71635380D01*
X217265309Y-71587761D01*
X217217690Y-71492523D01*
X217217690Y-71397285D01*
X217265309Y-71302047D01*
X217360547Y-71254428D01*
X217598642Y-71254428D01*
X217693880Y-71206809D01*
X218170071Y-70968714D02*
X218170071Y-71635380D01*
X218170071Y-71063952D02*
X218217690Y-71016333D01*
X218312928Y-70968714D01*
X218455785Y-70968714D01*
X218551023Y-71016333D01*
X218598642Y-71111571D01*
X218598642Y-71635380D01*
X219503404Y-71635380D02*
X219503404Y-70635380D01*
X219503404Y-71587761D02*
X219408166Y-71635380D01*
X219217690Y-71635380D01*
X219122452Y-71587761D01*
X219074833Y-71540142D01*
X219027214Y-71444904D01*
X219027214Y-71159190D01*
X219074833Y-71063952D01*
X219122452Y-71016333D01*
X219217690Y-70968714D01*
X219408166Y-70968714D01*
X219503404Y-71016333D01*
D12*
X30226000Y-54968000D02*
X26186000Y-54968000D01*
X26186000Y-54968000D02*
X26186000Y-70508000D01*
X26186000Y-70508000D02*
X28726000Y-70508000D01*
X26186000Y-56388000D02*
X20186000Y-56388000D01*
X26186000Y-58928000D02*
X20186000Y-58928000D01*
X26186000Y-61468000D02*
X20186000Y-61468000D01*
X26186000Y-64008000D02*
X20186000Y-64008000D01*
X26186000Y-66548000D02*
X20186000Y-66548000D01*
X26186000Y-69088000D02*
X20186000Y-69088000D01*
D13*
X32780500Y-60976742D02*
X32780500Y-61451258D01*
X31735500Y-60976742D02*
X31735500Y-61451258D01*
X31523000Y-63462000D02*
X31523000Y-65747000D01*
X31523000Y-65747000D02*
X32993000Y-65747000D01*
X32993000Y-65747000D02*
X32993000Y-63462000D01*
D10*
X30146666Y-53300380D02*
X30146666Y-54014666D01*
X30099047Y-54157523D01*
X30003809Y-54252761D01*
X29860952Y-54300380D01*
X29765714Y-54300380D01*
X31146666Y-54300380D02*
X30575238Y-54300380D01*
X30860952Y-54300380D02*
X30860952Y-53300380D01*
X30765714Y-53443238D01*
X30670476Y-53538476D01*
X30575238Y-53586095D01*
X33869333Y-60650380D02*
X33536000Y-60174190D01*
X33297904Y-60650380D02*
X33297904Y-59650380D01*
X33678857Y-59650380D01*
X33774095Y-59698000D01*
X33821714Y-59745619D01*
X33869333Y-59840857D01*
X33869333Y-59983714D01*
X33821714Y-60078952D01*
X33774095Y-60126571D01*
X33678857Y-60174190D01*
X33297904Y-60174190D01*
X34821714Y-60650380D02*
X34250285Y-60650380D01*
X34536000Y-60650380D02*
X34536000Y-59650380D01*
X34440761Y-59793238D01*
X34345523Y-59888476D01*
X34250285Y-59936095D01*
X33297904Y-65730380D02*
X33297904Y-64730380D01*
X33536000Y-64730380D01*
X33678857Y-64778000D01*
X33774095Y-64873238D01*
X33821714Y-64968476D01*
X33869333Y-65158952D01*
X33869333Y-65301809D01*
X33821714Y-65492285D01*
X33774095Y-65587523D01*
X33678857Y-65682761D01*
X33536000Y-65730380D01*
X33297904Y-65730380D01*
X34821714Y-65730380D02*
X34250285Y-65730380D01*
X34536000Y-65730380D02*
X34536000Y-64730380D01*
X34440761Y-64873238D01*
X34345523Y-64968476D01*
X34250285Y-65016095D01*
%LPC*%
D14*
X212658000Y-62656000D03*
X155488000Y-62656000D03*
X98318000Y-62656000D03*
X41148000Y-62656000D03*
D15*
X30226000Y-56388000D03*
D16*
X30226000Y-58928000D03*
X30226000Y-61468000D03*
X30226000Y-64008000D03*
X30226000Y-66548000D03*
X30226000Y-69088000D03*
G36*
G01*
X31983000Y-61639000D02*
X32533000Y-61639000D01*
G75*
G02*
X32733000Y-61839000I0J-200000D01*
G01*
X32733000Y-62239000D01*
G75*
G02*
X32533000Y-62439000I-200000J0D01*
G01*
X31983000Y-62439000D01*
G75*
G02*
X31783000Y-62239000I0J200000D01*
G01*
X31783000Y-61839000D01*
G75*
G02*
X31983000Y-61639000I200000J0D01*
G01*
G37*
G36*
G01*
X31983000Y-59989000D02*
X32533000Y-59989000D01*
G75*
G02*
X32733000Y-60189000I0J-200000D01*
G01*
X32733000Y-60589000D01*
G75*
G02*
X32533000Y-60789000I-200000J0D01*
G01*
X31983000Y-60789000D01*
G75*
G02*
X31783000Y-60589000I0J200000D01*
G01*
X31783000Y-60189000D01*
G75*
G02*
X31983000Y-59989000I200000J0D01*
G01*
G37*
G36*
G01*
X32514250Y-63912000D02*
X32001750Y-63912000D01*
G75*
G02*
X31783000Y-63693250I0J218750D01*
G01*
X31783000Y-63255750D01*
G75*
G02*
X32001750Y-63037000I218750J0D01*
G01*
X32514250Y-63037000D01*
G75*
G02*
X32733000Y-63255750I0J-218750D01*
G01*
X32733000Y-63693250D01*
G75*
G02*
X32514250Y-63912000I-218750J0D01*
G01*
G37*
G36*
G01*
X32514250Y-65487000D02*
X32001750Y-65487000D01*
G75*
G02*
X31783000Y-65268250I0J218750D01*
G01*
X31783000Y-64830750D01*
G75*
G02*
X32001750Y-64612000I218750J0D01*
G01*
X32514250Y-64612000D01*
G75*
G02*
X32733000Y-64830750I0J-218750D01*
G01*
X32733000Y-65268250D01*
G75*
G02*
X32514250Y-65487000I-218750J0D01*
G01*
G37*
M02*
