%FSLAX45Y45*%
G04 Gerber Fmt 4.5, Leading zero omitted, Abs format (unit mm)*
G04 Created by KiCad (PCBNEW 5.1.10-88a1d61d58~88~ubuntu18.04.1) date 2021-09-30 10:19:48*
%MOMM*%
%LPD*%
G01*
G04 APERTURE LIST*
%TA.AperFunction,Profile*%
%ADD10C,0.100000*%
%TD*%
%ADD11C,0.200000*%
%ADD12C,0.300000*%
G04 APERTURE END LIST*
D10*
X10616200Y-5257800D02*
X10616200Y-13257800D01*
X2616200Y-5257800D02*
X10616200Y-5257800D01*
X2616200Y-13257800D02*
X2616200Y-5257800D01*
X10616200Y-13257800D02*
X2616200Y-13257800D01*
D11*
X3345500Y-11943400D02*
X3385500Y-11983400D01*
X3385500Y-11943400D02*
X3345500Y-11983400D01*
X3866200Y-6050600D02*
X3906200Y-6090600D01*
X3906200Y-6050600D02*
X3866200Y-6090600D01*
X3866200Y-11740200D02*
X3906200Y-11780200D01*
X3906200Y-11740200D02*
X3866200Y-11780200D01*
X9060500Y-11943400D02*
X9100500Y-11983400D01*
X9100500Y-11943400D02*
X9060500Y-11983400D01*
X9530400Y-11765600D02*
X9570400Y-11805600D01*
X9570400Y-11765600D02*
X9530400Y-11805600D01*
X9555800Y-6050600D02*
X9595800Y-6090600D01*
X9595800Y-6050600D02*
X9555800Y-6090600D01*
X3377800Y-6248400D02*
G75*
G03*
X3377800Y-6248400I-25000J0D01*
G01*
X9092800Y-6248400D02*
G75*
G03*
X9092800Y-6248400I-25000J0D01*
G01*
X3022600Y-8583300D02*
X3022600Y-8663300D01*
X2982600Y-8623300D02*
X3062600Y-8623300D01*
X3022600Y-8837300D02*
X3022600Y-8917300D01*
X2982600Y-8877300D02*
X3062600Y-8877300D01*
X3022600Y-9091300D02*
X3022600Y-9171300D01*
X2982600Y-9131300D02*
X3062600Y-9131300D01*
X3022600Y-9345300D02*
X3022600Y-9425300D01*
X2982600Y-9385300D02*
X3062600Y-9385300D01*
X3022600Y-9599300D02*
X3022600Y-9679300D01*
X2982600Y-9639300D02*
X3062600Y-9639300D01*
X3022600Y-9853300D02*
X3022600Y-9933300D01*
X2982600Y-9893300D02*
X3062600Y-9893300D01*
X3865267Y-9364367D02*
X3865267Y-9152233D01*
X3653133Y-9152233D01*
X3653133Y-9364367D01*
X3865267Y-9364367D01*
X6723767Y-6506867D02*
X6723767Y-6294733D01*
X6511633Y-6294733D01*
X6511633Y-6506867D01*
X6723767Y-6506867D01*
X6723767Y-12221867D02*
X6723767Y-12009733D01*
X6511633Y-12009733D01*
X6511633Y-12221867D01*
X6723767Y-12221867D01*
X9582267Y-9364367D02*
X9582267Y-9152233D01*
X9370133Y-9152233D01*
X9370133Y-9364367D01*
X9582267Y-9364367D01*
D12*
X2897628Y-13728514D02*
X2897628Y-13428514D01*
X2969057Y-13428514D01*
X3011914Y-13442800D01*
X3040486Y-13471371D01*
X3054771Y-13499943D01*
X3069057Y-13557086D01*
X3069057Y-13599943D01*
X3054771Y-13657086D01*
X3040486Y-13685657D01*
X3011914Y-13714229D01*
X2969057Y-13728514D01*
X2897628Y-13728514D01*
X3197628Y-13728514D02*
X3197628Y-13528514D01*
X3197628Y-13585657D02*
X3211914Y-13557086D01*
X3226200Y-13542800D01*
X3254771Y-13528514D01*
X3283343Y-13528514D01*
X3383343Y-13728514D02*
X3383343Y-13528514D01*
X3383343Y-13428514D02*
X3369057Y-13442800D01*
X3383343Y-13457086D01*
X3397628Y-13442800D01*
X3383343Y-13428514D01*
X3383343Y-13457086D01*
X3569057Y-13728514D02*
X3540486Y-13714229D01*
X3526200Y-13685657D01*
X3526200Y-13428514D01*
X3726200Y-13728514D02*
X3697628Y-13714229D01*
X3683343Y-13685657D01*
X3683343Y-13428514D01*
X4069057Y-13728514D02*
X4069057Y-13428514D01*
X4169057Y-13642800D01*
X4269057Y-13428514D01*
X4269057Y-13728514D01*
X4540486Y-13728514D02*
X4540486Y-13571371D01*
X4526200Y-13542800D01*
X4497628Y-13528514D01*
X4440486Y-13528514D01*
X4411914Y-13542800D01*
X4540486Y-13714229D02*
X4511914Y-13728514D01*
X4440486Y-13728514D01*
X4411914Y-13714229D01*
X4397628Y-13685657D01*
X4397628Y-13657086D01*
X4411914Y-13628514D01*
X4440486Y-13614229D01*
X4511914Y-13614229D01*
X4540486Y-13599943D01*
X4683343Y-13528514D02*
X4683343Y-13828514D01*
X4683343Y-13542800D02*
X4711914Y-13528514D01*
X4769057Y-13528514D01*
X4797628Y-13542800D01*
X4811914Y-13557086D01*
X4826200Y-13585657D01*
X4826200Y-13671371D01*
X4811914Y-13699943D01*
X4797628Y-13714229D01*
X4769057Y-13728514D01*
X4711914Y-13728514D01*
X4683343Y-13714229D01*
X4954771Y-13699943D02*
X4969057Y-13714229D01*
X4954771Y-13728514D01*
X4940486Y-13714229D01*
X4954771Y-13699943D01*
X4954771Y-13728514D01*
X4954771Y-13542800D02*
X4969057Y-13557086D01*
X4954771Y-13571371D01*
X4940486Y-13557086D01*
X4954771Y-13542800D01*
X4954771Y-13571371D01*
X2571200Y-14202800D02*
X2611200Y-14242800D01*
X2611200Y-14202800D02*
X2571200Y-14242800D01*
X2954771Y-14058514D02*
X2983343Y-14058514D01*
X3011914Y-14072800D01*
X3026200Y-14087086D01*
X3040486Y-14115657D01*
X3054771Y-14172800D01*
X3054771Y-14244229D01*
X3040486Y-14301371D01*
X3026200Y-14329943D01*
X3011914Y-14344229D01*
X2983343Y-14358514D01*
X2954771Y-14358514D01*
X2926200Y-14344229D01*
X2911914Y-14329943D01*
X2897628Y-14301371D01*
X2883343Y-14244229D01*
X2883343Y-14172800D01*
X2897628Y-14115657D01*
X2911914Y-14087086D01*
X2926200Y-14072800D01*
X2954771Y-14058514D01*
X3183343Y-14329943D02*
X3197628Y-14344229D01*
X3183343Y-14358514D01*
X3169057Y-14344229D01*
X3183343Y-14329943D01*
X3183343Y-14358514D01*
X3454771Y-14158514D02*
X3454771Y-14358514D01*
X3383343Y-14044229D02*
X3311914Y-14258514D01*
X3497628Y-14258514D01*
X3669057Y-14058514D02*
X3697628Y-14058514D01*
X3726200Y-14072800D01*
X3740486Y-14087086D01*
X3754771Y-14115657D01*
X3769057Y-14172800D01*
X3769057Y-14244229D01*
X3754771Y-14301371D01*
X3740486Y-14329943D01*
X3726200Y-14344229D01*
X3697628Y-14358514D01*
X3669057Y-14358514D01*
X3640486Y-14344229D01*
X3626200Y-14329943D01*
X3611914Y-14301371D01*
X3597628Y-14244229D01*
X3597628Y-14172800D01*
X3611914Y-14115657D01*
X3626200Y-14087086D01*
X3640486Y-14072800D01*
X3669057Y-14058514D01*
X3954771Y-14058514D02*
X3983343Y-14058514D01*
X4011914Y-14072800D01*
X4026200Y-14087086D01*
X4040486Y-14115657D01*
X4054771Y-14172800D01*
X4054771Y-14244229D01*
X4040486Y-14301371D01*
X4026200Y-14329943D01*
X4011914Y-14344229D01*
X3983343Y-14358514D01*
X3954771Y-14358514D01*
X3926200Y-14344229D01*
X3911914Y-14329943D01*
X3897628Y-14301371D01*
X3883343Y-14244229D01*
X3883343Y-14172800D01*
X3897628Y-14115657D01*
X3911914Y-14087086D01*
X3926200Y-14072800D01*
X3954771Y-14058514D01*
X4183343Y-14358514D02*
X4183343Y-14158514D01*
X4183343Y-14187086D02*
X4197628Y-14172800D01*
X4226200Y-14158514D01*
X4269057Y-14158514D01*
X4297628Y-14172800D01*
X4311914Y-14201371D01*
X4311914Y-14358514D01*
X4311914Y-14201371D02*
X4326200Y-14172800D01*
X4354771Y-14158514D01*
X4397628Y-14158514D01*
X4426200Y-14172800D01*
X4440486Y-14201371D01*
X4440486Y-14358514D01*
X4583343Y-14358514D02*
X4583343Y-14158514D01*
X4583343Y-14187086D02*
X4597628Y-14172800D01*
X4626200Y-14158514D01*
X4669057Y-14158514D01*
X4697628Y-14172800D01*
X4711914Y-14201371D01*
X4711914Y-14358514D01*
X4711914Y-14201371D02*
X4726200Y-14172800D01*
X4754771Y-14158514D01*
X4797628Y-14158514D01*
X4826200Y-14172800D01*
X4840486Y-14201371D01*
X4840486Y-14358514D01*
X5426200Y-14044229D02*
X5169057Y-14429943D01*
X5811914Y-14058514D02*
X5840486Y-14058514D01*
X5869057Y-14072800D01*
X5883343Y-14087086D01*
X5897628Y-14115657D01*
X5911914Y-14172800D01*
X5911914Y-14244229D01*
X5897628Y-14301371D01*
X5883343Y-14329943D01*
X5869057Y-14344229D01*
X5840486Y-14358514D01*
X5811914Y-14358514D01*
X5783343Y-14344229D01*
X5769057Y-14329943D01*
X5754771Y-14301371D01*
X5740486Y-14244229D01*
X5740486Y-14172800D01*
X5754771Y-14115657D01*
X5769057Y-14087086D01*
X5783343Y-14072800D01*
X5811914Y-14058514D01*
X6040486Y-14329943D02*
X6054771Y-14344229D01*
X6040486Y-14358514D01*
X6026200Y-14344229D01*
X6040486Y-14329943D01*
X6040486Y-14358514D01*
X6240486Y-14058514D02*
X6269057Y-14058514D01*
X6297628Y-14072800D01*
X6311914Y-14087086D01*
X6326200Y-14115657D01*
X6340486Y-14172800D01*
X6340486Y-14244229D01*
X6326200Y-14301371D01*
X6311914Y-14329943D01*
X6297628Y-14344229D01*
X6269057Y-14358514D01*
X6240486Y-14358514D01*
X6211914Y-14344229D01*
X6197628Y-14329943D01*
X6183343Y-14301371D01*
X6169057Y-14244229D01*
X6169057Y-14172800D01*
X6183343Y-14115657D01*
X6197628Y-14087086D01*
X6211914Y-14072800D01*
X6240486Y-14058514D01*
X6626200Y-14358514D02*
X6454771Y-14358514D01*
X6540486Y-14358514D02*
X6540486Y-14058514D01*
X6511914Y-14101371D01*
X6483343Y-14129943D01*
X6454771Y-14144229D01*
X6897628Y-14058514D02*
X6754771Y-14058514D01*
X6740486Y-14201371D01*
X6754771Y-14187086D01*
X6783343Y-14172800D01*
X6854771Y-14172800D01*
X6883343Y-14187086D01*
X6897628Y-14201371D01*
X6911914Y-14229943D01*
X6911914Y-14301371D01*
X6897628Y-14329943D01*
X6883343Y-14344229D01*
X6854771Y-14358514D01*
X6783343Y-14358514D01*
X6754771Y-14344229D01*
X6740486Y-14329943D01*
X7011914Y-14058514D02*
X7211914Y-14058514D01*
X7083343Y-14358514D01*
X7311914Y-14058514D02*
X7311914Y-14115657D01*
X7426200Y-14058514D02*
X7426200Y-14115657D01*
X7869057Y-14472800D02*
X7854771Y-14458514D01*
X7826200Y-14415657D01*
X7811914Y-14387086D01*
X7797628Y-14344229D01*
X7783343Y-14272800D01*
X7783343Y-14215657D01*
X7797628Y-14144229D01*
X7811914Y-14101371D01*
X7826200Y-14072800D01*
X7854771Y-14029943D01*
X7869057Y-14015657D01*
X8111914Y-14058514D02*
X8054771Y-14058514D01*
X8026200Y-14072800D01*
X8011914Y-14087086D01*
X7983343Y-14129943D01*
X7969057Y-14187086D01*
X7969057Y-14301371D01*
X7983343Y-14329943D01*
X7997628Y-14344229D01*
X8026200Y-14358514D01*
X8083343Y-14358514D01*
X8111914Y-14344229D01*
X8126200Y-14329943D01*
X8140486Y-14301371D01*
X8140486Y-14229943D01*
X8126200Y-14201371D01*
X8111914Y-14187086D01*
X8083343Y-14172800D01*
X8026200Y-14172800D01*
X7997628Y-14187086D01*
X7983343Y-14201371D01*
X7969057Y-14229943D01*
X8497628Y-14358514D02*
X8497628Y-14058514D01*
X8626200Y-14358514D02*
X8626200Y-14201371D01*
X8611914Y-14172800D01*
X8583343Y-14158514D01*
X8540486Y-14158514D01*
X8511914Y-14172800D01*
X8497628Y-14187086D01*
X8811914Y-14358514D02*
X8783343Y-14344229D01*
X8769057Y-14329943D01*
X8754771Y-14301371D01*
X8754771Y-14215657D01*
X8769057Y-14187086D01*
X8783343Y-14172800D01*
X8811914Y-14158514D01*
X8854771Y-14158514D01*
X8883343Y-14172800D01*
X8897628Y-14187086D01*
X8911914Y-14215657D01*
X8911914Y-14301371D01*
X8897628Y-14329943D01*
X8883343Y-14344229D01*
X8854771Y-14358514D01*
X8811914Y-14358514D01*
X9083343Y-14358514D02*
X9054771Y-14344229D01*
X9040486Y-14315657D01*
X9040486Y-14058514D01*
X9311914Y-14344229D02*
X9283343Y-14358514D01*
X9226200Y-14358514D01*
X9197628Y-14344229D01*
X9183343Y-14315657D01*
X9183343Y-14201371D01*
X9197628Y-14172800D01*
X9226200Y-14158514D01*
X9283343Y-14158514D01*
X9311914Y-14172800D01*
X9326200Y-14201371D01*
X9326200Y-14229943D01*
X9183343Y-14258514D01*
X9440486Y-14344229D02*
X9469057Y-14358514D01*
X9526200Y-14358514D01*
X9554771Y-14344229D01*
X9569057Y-14315657D01*
X9569057Y-14301371D01*
X9554771Y-14272800D01*
X9526200Y-14258514D01*
X9483343Y-14258514D01*
X9454771Y-14244229D01*
X9440486Y-14215657D01*
X9440486Y-14201371D01*
X9454771Y-14172800D01*
X9483343Y-14158514D01*
X9526200Y-14158514D01*
X9554771Y-14172800D01*
X9669057Y-14472800D02*
X9683343Y-14458514D01*
X9711914Y-14415657D01*
X9726200Y-14387086D01*
X9740486Y-14344229D01*
X9754771Y-14272800D01*
X9754771Y-14215657D01*
X9740486Y-14144229D01*
X9726200Y-14101371D01*
X9711914Y-14072800D01*
X9683343Y-14029943D01*
X9669057Y-14015657D01*
X2611200Y-14618800D02*
G75*
G03*
X2611200Y-14618800I-25000J0D01*
G01*
X2954771Y-14454514D02*
X2983343Y-14454514D01*
X3011914Y-14468800D01*
X3026200Y-14483086D01*
X3040486Y-14511657D01*
X3054771Y-14568800D01*
X3054771Y-14640229D01*
X3040486Y-14697371D01*
X3026200Y-14725943D01*
X3011914Y-14740229D01*
X2983343Y-14754514D01*
X2954771Y-14754514D01*
X2926200Y-14740229D01*
X2911914Y-14725943D01*
X2897628Y-14697371D01*
X2883343Y-14640229D01*
X2883343Y-14568800D01*
X2897628Y-14511657D01*
X2911914Y-14483086D01*
X2926200Y-14468800D01*
X2954771Y-14454514D01*
X3183343Y-14725943D02*
X3197628Y-14740229D01*
X3183343Y-14754514D01*
X3169057Y-14740229D01*
X3183343Y-14725943D01*
X3183343Y-14754514D01*
X3469057Y-14454514D02*
X3326200Y-14454514D01*
X3311914Y-14597371D01*
X3326200Y-14583086D01*
X3354771Y-14568800D01*
X3426200Y-14568800D01*
X3454771Y-14583086D01*
X3469057Y-14597371D01*
X3483343Y-14625943D01*
X3483343Y-14697371D01*
X3469057Y-14725943D01*
X3454771Y-14740229D01*
X3426200Y-14754514D01*
X3354771Y-14754514D01*
X3326200Y-14740229D01*
X3311914Y-14725943D01*
X3669057Y-14454514D02*
X3697628Y-14454514D01*
X3726200Y-14468800D01*
X3740486Y-14483086D01*
X3754771Y-14511657D01*
X3769057Y-14568800D01*
X3769057Y-14640229D01*
X3754771Y-14697371D01*
X3740486Y-14725943D01*
X3726200Y-14740229D01*
X3697628Y-14754514D01*
X3669057Y-14754514D01*
X3640486Y-14740229D01*
X3626200Y-14725943D01*
X3611914Y-14697371D01*
X3597628Y-14640229D01*
X3597628Y-14568800D01*
X3611914Y-14511657D01*
X3626200Y-14483086D01*
X3640486Y-14468800D01*
X3669057Y-14454514D01*
X3954771Y-14454514D02*
X3983343Y-14454514D01*
X4011914Y-14468800D01*
X4026200Y-14483086D01*
X4040486Y-14511657D01*
X4054771Y-14568800D01*
X4054771Y-14640229D01*
X4040486Y-14697371D01*
X4026200Y-14725943D01*
X4011914Y-14740229D01*
X3983343Y-14754514D01*
X3954771Y-14754514D01*
X3926200Y-14740229D01*
X3911914Y-14725943D01*
X3897628Y-14697371D01*
X3883343Y-14640229D01*
X3883343Y-14568800D01*
X3897628Y-14511657D01*
X3911914Y-14483086D01*
X3926200Y-14468800D01*
X3954771Y-14454514D01*
X4183343Y-14754514D02*
X4183343Y-14554514D01*
X4183343Y-14583086D02*
X4197628Y-14568800D01*
X4226200Y-14554514D01*
X4269057Y-14554514D01*
X4297628Y-14568800D01*
X4311914Y-14597371D01*
X4311914Y-14754514D01*
X4311914Y-14597371D02*
X4326200Y-14568800D01*
X4354771Y-14554514D01*
X4397628Y-14554514D01*
X4426200Y-14568800D01*
X4440486Y-14597371D01*
X4440486Y-14754514D01*
X4583343Y-14754514D02*
X4583343Y-14554514D01*
X4583343Y-14583086D02*
X4597628Y-14568800D01*
X4626200Y-14554514D01*
X4669057Y-14554514D01*
X4697628Y-14568800D01*
X4711914Y-14597371D01*
X4711914Y-14754514D01*
X4711914Y-14597371D02*
X4726200Y-14568800D01*
X4754771Y-14554514D01*
X4797628Y-14554514D01*
X4826200Y-14568800D01*
X4840486Y-14597371D01*
X4840486Y-14754514D01*
X5426200Y-14440229D02*
X5169057Y-14825943D01*
X5811914Y-14454514D02*
X5840486Y-14454514D01*
X5869057Y-14468800D01*
X5883343Y-14483086D01*
X5897628Y-14511657D01*
X5911914Y-14568800D01*
X5911914Y-14640229D01*
X5897628Y-14697371D01*
X5883343Y-14725943D01*
X5869057Y-14740229D01*
X5840486Y-14754514D01*
X5811914Y-14754514D01*
X5783343Y-14740229D01*
X5769057Y-14725943D01*
X5754771Y-14697371D01*
X5740486Y-14640229D01*
X5740486Y-14568800D01*
X5754771Y-14511657D01*
X5769057Y-14483086D01*
X5783343Y-14468800D01*
X5811914Y-14454514D01*
X6040486Y-14725943D02*
X6054771Y-14740229D01*
X6040486Y-14754514D01*
X6026200Y-14740229D01*
X6040486Y-14725943D01*
X6040486Y-14754514D01*
X6240486Y-14454514D02*
X6269057Y-14454514D01*
X6297628Y-14468800D01*
X6311914Y-14483086D01*
X6326200Y-14511657D01*
X6340486Y-14568800D01*
X6340486Y-14640229D01*
X6326200Y-14697371D01*
X6311914Y-14725943D01*
X6297628Y-14740229D01*
X6269057Y-14754514D01*
X6240486Y-14754514D01*
X6211914Y-14740229D01*
X6197628Y-14725943D01*
X6183343Y-14697371D01*
X6169057Y-14640229D01*
X6169057Y-14568800D01*
X6183343Y-14511657D01*
X6197628Y-14483086D01*
X6211914Y-14468800D01*
X6240486Y-14454514D01*
X6626200Y-14754514D02*
X6454771Y-14754514D01*
X6540486Y-14754514D02*
X6540486Y-14454514D01*
X6511914Y-14497371D01*
X6483343Y-14525943D01*
X6454771Y-14540229D01*
X6769057Y-14754514D02*
X6826200Y-14754514D01*
X6854771Y-14740229D01*
X6869057Y-14725943D01*
X6897628Y-14683086D01*
X6911914Y-14625943D01*
X6911914Y-14511657D01*
X6897628Y-14483086D01*
X6883343Y-14468800D01*
X6854771Y-14454514D01*
X6797628Y-14454514D01*
X6769057Y-14468800D01*
X6754771Y-14483086D01*
X6740486Y-14511657D01*
X6740486Y-14583086D01*
X6754771Y-14611657D01*
X6769057Y-14625943D01*
X6797628Y-14640229D01*
X6854771Y-14640229D01*
X6883343Y-14625943D01*
X6897628Y-14611657D01*
X6911914Y-14583086D01*
X7011914Y-14454514D02*
X7211914Y-14454514D01*
X7083343Y-14754514D01*
X7311914Y-14454514D02*
X7311914Y-14511657D01*
X7426200Y-14454514D02*
X7426200Y-14511657D01*
X7869057Y-14868800D02*
X7854771Y-14854514D01*
X7826200Y-14811657D01*
X7811914Y-14783086D01*
X7797628Y-14740229D01*
X7783343Y-14668800D01*
X7783343Y-14611657D01*
X7797628Y-14540229D01*
X7811914Y-14497371D01*
X7826200Y-14468800D01*
X7854771Y-14425943D01*
X7869057Y-14411657D01*
X7969057Y-14483086D02*
X7983343Y-14468800D01*
X8011914Y-14454514D01*
X8083343Y-14454514D01*
X8111914Y-14468800D01*
X8126200Y-14483086D01*
X8140486Y-14511657D01*
X8140486Y-14540229D01*
X8126200Y-14583086D01*
X7954771Y-14754514D01*
X8140486Y-14754514D01*
X8497628Y-14754514D02*
X8497628Y-14454514D01*
X8626200Y-14754514D02*
X8626200Y-14597371D01*
X8611914Y-14568800D01*
X8583343Y-14554514D01*
X8540486Y-14554514D01*
X8511914Y-14568800D01*
X8497628Y-14583086D01*
X8811914Y-14754514D02*
X8783343Y-14740229D01*
X8769057Y-14725943D01*
X8754771Y-14697371D01*
X8754771Y-14611657D01*
X8769057Y-14583086D01*
X8783343Y-14568800D01*
X8811914Y-14554514D01*
X8854771Y-14554514D01*
X8883343Y-14568800D01*
X8897628Y-14583086D01*
X8911914Y-14611657D01*
X8911914Y-14697371D01*
X8897628Y-14725943D01*
X8883343Y-14740229D01*
X8854771Y-14754514D01*
X8811914Y-14754514D01*
X9083343Y-14754514D02*
X9054771Y-14740229D01*
X9040486Y-14711657D01*
X9040486Y-14454514D01*
X9311914Y-14740229D02*
X9283343Y-14754514D01*
X9226200Y-14754514D01*
X9197628Y-14740229D01*
X9183343Y-14711657D01*
X9183343Y-14597371D01*
X9197628Y-14568800D01*
X9226200Y-14554514D01*
X9283343Y-14554514D01*
X9311914Y-14568800D01*
X9326200Y-14597371D01*
X9326200Y-14625943D01*
X9183343Y-14654514D01*
X9440486Y-14740229D02*
X9469057Y-14754514D01*
X9526200Y-14754514D01*
X9554771Y-14740229D01*
X9569057Y-14711657D01*
X9569057Y-14697371D01*
X9554771Y-14668800D01*
X9526200Y-14654514D01*
X9483343Y-14654514D01*
X9454771Y-14640229D01*
X9440486Y-14611657D01*
X9440486Y-14597371D01*
X9454771Y-14568800D01*
X9483343Y-14554514D01*
X9526200Y-14554514D01*
X9554771Y-14568800D01*
X9669057Y-14868800D02*
X9683343Y-14854514D01*
X9711914Y-14811657D01*
X9726200Y-14783086D01*
X9740486Y-14740229D01*
X9754771Y-14668800D01*
X9754771Y-14611657D01*
X9740486Y-14540229D01*
X9726200Y-14497371D01*
X9711914Y-14468800D01*
X9683343Y-14425943D01*
X9669057Y-14411657D01*
X2571200Y-14974800D02*
X2571200Y-15054800D01*
X2531200Y-15014800D02*
X2611200Y-15014800D01*
X2954771Y-14850514D02*
X2983343Y-14850514D01*
X3011914Y-14864800D01*
X3026200Y-14879086D01*
X3040486Y-14907657D01*
X3054771Y-14964800D01*
X3054771Y-15036229D01*
X3040486Y-15093371D01*
X3026200Y-15121943D01*
X3011914Y-15136229D01*
X2983343Y-15150514D01*
X2954771Y-15150514D01*
X2926200Y-15136229D01*
X2911914Y-15121943D01*
X2897628Y-15093371D01*
X2883343Y-15036229D01*
X2883343Y-14964800D01*
X2897628Y-14907657D01*
X2911914Y-14879086D01*
X2926200Y-14864800D01*
X2954771Y-14850514D01*
X3183343Y-15121943D02*
X3197628Y-15136229D01*
X3183343Y-15150514D01*
X3169057Y-15136229D01*
X3183343Y-15121943D01*
X3183343Y-15150514D01*
X3369057Y-14979086D02*
X3340486Y-14964800D01*
X3326200Y-14950514D01*
X3311914Y-14921943D01*
X3311914Y-14907657D01*
X3326200Y-14879086D01*
X3340486Y-14864800D01*
X3369057Y-14850514D01*
X3426200Y-14850514D01*
X3454771Y-14864800D01*
X3469057Y-14879086D01*
X3483343Y-14907657D01*
X3483343Y-14921943D01*
X3469057Y-14950514D01*
X3454771Y-14964800D01*
X3426200Y-14979086D01*
X3369057Y-14979086D01*
X3340486Y-14993371D01*
X3326200Y-15007657D01*
X3311914Y-15036229D01*
X3311914Y-15093371D01*
X3326200Y-15121943D01*
X3340486Y-15136229D01*
X3369057Y-15150514D01*
X3426200Y-15150514D01*
X3454771Y-15136229D01*
X3469057Y-15121943D01*
X3483343Y-15093371D01*
X3483343Y-15036229D01*
X3469057Y-15007657D01*
X3454771Y-14993371D01*
X3426200Y-14979086D01*
X3669057Y-14850514D02*
X3697628Y-14850514D01*
X3726200Y-14864800D01*
X3740486Y-14879086D01*
X3754771Y-14907657D01*
X3769057Y-14964800D01*
X3769057Y-15036229D01*
X3754771Y-15093371D01*
X3740486Y-15121943D01*
X3726200Y-15136229D01*
X3697628Y-15150514D01*
X3669057Y-15150514D01*
X3640486Y-15136229D01*
X3626200Y-15121943D01*
X3611914Y-15093371D01*
X3597628Y-15036229D01*
X3597628Y-14964800D01*
X3611914Y-14907657D01*
X3626200Y-14879086D01*
X3640486Y-14864800D01*
X3669057Y-14850514D01*
X3954771Y-14850514D02*
X3983343Y-14850514D01*
X4011914Y-14864800D01*
X4026200Y-14879086D01*
X4040486Y-14907657D01*
X4054771Y-14964800D01*
X4054771Y-15036229D01*
X4040486Y-15093371D01*
X4026200Y-15121943D01*
X4011914Y-15136229D01*
X3983343Y-15150514D01*
X3954771Y-15150514D01*
X3926200Y-15136229D01*
X3911914Y-15121943D01*
X3897628Y-15093371D01*
X3883343Y-15036229D01*
X3883343Y-14964800D01*
X3897628Y-14907657D01*
X3911914Y-14879086D01*
X3926200Y-14864800D01*
X3954771Y-14850514D01*
X4183343Y-15150514D02*
X4183343Y-14950514D01*
X4183343Y-14979086D02*
X4197628Y-14964800D01*
X4226200Y-14950514D01*
X4269057Y-14950514D01*
X4297628Y-14964800D01*
X4311914Y-14993371D01*
X4311914Y-15150514D01*
X4311914Y-14993371D02*
X4326200Y-14964800D01*
X4354771Y-14950514D01*
X4397628Y-14950514D01*
X4426200Y-14964800D01*
X4440486Y-14993371D01*
X4440486Y-15150514D01*
X4583343Y-15150514D02*
X4583343Y-14950514D01*
X4583343Y-14979086D02*
X4597628Y-14964800D01*
X4626200Y-14950514D01*
X4669057Y-14950514D01*
X4697628Y-14964800D01*
X4711914Y-14993371D01*
X4711914Y-15150514D01*
X4711914Y-14993371D02*
X4726200Y-14964800D01*
X4754771Y-14950514D01*
X4797628Y-14950514D01*
X4826200Y-14964800D01*
X4840486Y-14993371D01*
X4840486Y-15150514D01*
X5426200Y-14836229D02*
X5169057Y-15221943D01*
X5811914Y-14850514D02*
X5840486Y-14850514D01*
X5869057Y-14864800D01*
X5883343Y-14879086D01*
X5897628Y-14907657D01*
X5911914Y-14964800D01*
X5911914Y-15036229D01*
X5897628Y-15093371D01*
X5883343Y-15121943D01*
X5869057Y-15136229D01*
X5840486Y-15150514D01*
X5811914Y-15150514D01*
X5783343Y-15136229D01*
X5769057Y-15121943D01*
X5754771Y-15093371D01*
X5740486Y-15036229D01*
X5740486Y-14964800D01*
X5754771Y-14907657D01*
X5769057Y-14879086D01*
X5783343Y-14864800D01*
X5811914Y-14850514D01*
X6040486Y-15121943D02*
X6054771Y-15136229D01*
X6040486Y-15150514D01*
X6026200Y-15136229D01*
X6040486Y-15121943D01*
X6040486Y-15150514D01*
X6240486Y-14850514D02*
X6269057Y-14850514D01*
X6297628Y-14864800D01*
X6311914Y-14879086D01*
X6326200Y-14907657D01*
X6340486Y-14964800D01*
X6340486Y-15036229D01*
X6326200Y-15093371D01*
X6311914Y-15121943D01*
X6297628Y-15136229D01*
X6269057Y-15150514D01*
X6240486Y-15150514D01*
X6211914Y-15136229D01*
X6197628Y-15121943D01*
X6183343Y-15093371D01*
X6169057Y-15036229D01*
X6169057Y-14964800D01*
X6183343Y-14907657D01*
X6197628Y-14879086D01*
X6211914Y-14864800D01*
X6240486Y-14850514D01*
X6440486Y-14850514D02*
X6626200Y-14850514D01*
X6526200Y-14964800D01*
X6569057Y-14964800D01*
X6597628Y-14979086D01*
X6611914Y-14993371D01*
X6626200Y-15021943D01*
X6626200Y-15093371D01*
X6611914Y-15121943D01*
X6597628Y-15136229D01*
X6569057Y-15150514D01*
X6483343Y-15150514D01*
X6454771Y-15136229D01*
X6440486Y-15121943D01*
X6911914Y-15150514D02*
X6740486Y-15150514D01*
X6826200Y-15150514D02*
X6826200Y-14850514D01*
X6797628Y-14893371D01*
X6769057Y-14921943D01*
X6740486Y-14936229D01*
X7183343Y-14850514D02*
X7040486Y-14850514D01*
X7026200Y-14993371D01*
X7040486Y-14979086D01*
X7069057Y-14964800D01*
X7140486Y-14964800D01*
X7169057Y-14979086D01*
X7183343Y-14993371D01*
X7197628Y-15021943D01*
X7197628Y-15093371D01*
X7183343Y-15121943D01*
X7169057Y-15136229D01*
X7140486Y-15150514D01*
X7069057Y-15150514D01*
X7040486Y-15136229D01*
X7026200Y-15121943D01*
X7311914Y-14850514D02*
X7311914Y-14907657D01*
X7426200Y-14850514D02*
X7426200Y-14907657D01*
X7869057Y-15264800D02*
X7854771Y-15250514D01*
X7826200Y-15207657D01*
X7811914Y-15179086D01*
X7797628Y-15136229D01*
X7783343Y-15064800D01*
X7783343Y-15007657D01*
X7797628Y-14936229D01*
X7811914Y-14893371D01*
X7826200Y-14864800D01*
X7854771Y-14821943D01*
X7869057Y-14807657D01*
X8111914Y-14850514D02*
X8054771Y-14850514D01*
X8026200Y-14864800D01*
X8011914Y-14879086D01*
X7983343Y-14921943D01*
X7969057Y-14979086D01*
X7969057Y-15093371D01*
X7983343Y-15121943D01*
X7997628Y-15136229D01*
X8026200Y-15150514D01*
X8083343Y-15150514D01*
X8111914Y-15136229D01*
X8126200Y-15121943D01*
X8140486Y-15093371D01*
X8140486Y-15021943D01*
X8126200Y-14993371D01*
X8111914Y-14979086D01*
X8083343Y-14964800D01*
X8026200Y-14964800D01*
X7997628Y-14979086D01*
X7983343Y-14993371D01*
X7969057Y-15021943D01*
X8497628Y-15150514D02*
X8497628Y-14850514D01*
X8626200Y-15150514D02*
X8626200Y-14993371D01*
X8611914Y-14964800D01*
X8583343Y-14950514D01*
X8540486Y-14950514D01*
X8511914Y-14964800D01*
X8497628Y-14979086D01*
X8811914Y-15150514D02*
X8783343Y-15136229D01*
X8769057Y-15121943D01*
X8754771Y-15093371D01*
X8754771Y-15007657D01*
X8769057Y-14979086D01*
X8783343Y-14964800D01*
X8811914Y-14950514D01*
X8854771Y-14950514D01*
X8883343Y-14964800D01*
X8897628Y-14979086D01*
X8911914Y-15007657D01*
X8911914Y-15093371D01*
X8897628Y-15121943D01*
X8883343Y-15136229D01*
X8854771Y-15150514D01*
X8811914Y-15150514D01*
X9083343Y-15150514D02*
X9054771Y-15136229D01*
X9040486Y-15107657D01*
X9040486Y-14850514D01*
X9311914Y-15136229D02*
X9283343Y-15150514D01*
X9226200Y-15150514D01*
X9197628Y-15136229D01*
X9183343Y-15107657D01*
X9183343Y-14993371D01*
X9197628Y-14964800D01*
X9226200Y-14950514D01*
X9283343Y-14950514D01*
X9311914Y-14964800D01*
X9326200Y-14993371D01*
X9326200Y-15021943D01*
X9183343Y-15050514D01*
X9440486Y-15136229D02*
X9469057Y-15150514D01*
X9526200Y-15150514D01*
X9554771Y-15136229D01*
X9569057Y-15107657D01*
X9569057Y-15093371D01*
X9554771Y-15064800D01*
X9526200Y-15050514D01*
X9483343Y-15050514D01*
X9454771Y-15036229D01*
X9440486Y-15007657D01*
X9440486Y-14993371D01*
X9454771Y-14964800D01*
X9483343Y-14950514D01*
X9526200Y-14950514D01*
X9554771Y-14964800D01*
X9669057Y-15264800D02*
X9683343Y-15250514D01*
X9711914Y-15207657D01*
X9726200Y-15179086D01*
X9740486Y-15136229D01*
X9754771Y-15064800D01*
X9754771Y-15007657D01*
X9740486Y-14936229D01*
X9726200Y-14893371D01*
X9711914Y-14864800D01*
X9683343Y-14821943D01*
X9669057Y-14807657D01*
X2567267Y-15516867D02*
X2567267Y-15304733D01*
X2355133Y-15304733D01*
X2355133Y-15516867D01*
X2567267Y-15516867D01*
X2869057Y-15246514D02*
X3054771Y-15246514D01*
X2954771Y-15360800D01*
X2997628Y-15360800D01*
X3026200Y-15375086D01*
X3040486Y-15389371D01*
X3054771Y-15417943D01*
X3054771Y-15489371D01*
X3040486Y-15517943D01*
X3026200Y-15532229D01*
X2997628Y-15546514D01*
X2911914Y-15546514D01*
X2883343Y-15532229D01*
X2869057Y-15517943D01*
X3183343Y-15517943D02*
X3197628Y-15532229D01*
X3183343Y-15546514D01*
X3169057Y-15532229D01*
X3183343Y-15517943D01*
X3183343Y-15546514D01*
X3383343Y-15246514D02*
X3411914Y-15246514D01*
X3440486Y-15260800D01*
X3454771Y-15275086D01*
X3469057Y-15303657D01*
X3483343Y-15360800D01*
X3483343Y-15432229D01*
X3469057Y-15489371D01*
X3454771Y-15517943D01*
X3440486Y-15532229D01*
X3411914Y-15546514D01*
X3383343Y-15546514D01*
X3354771Y-15532229D01*
X3340486Y-15517943D01*
X3326200Y-15489371D01*
X3311914Y-15432229D01*
X3311914Y-15360800D01*
X3326200Y-15303657D01*
X3340486Y-15275086D01*
X3354771Y-15260800D01*
X3383343Y-15246514D01*
X3669057Y-15246514D02*
X3697628Y-15246514D01*
X3726200Y-15260800D01*
X3740486Y-15275086D01*
X3754771Y-15303657D01*
X3769057Y-15360800D01*
X3769057Y-15432229D01*
X3754771Y-15489371D01*
X3740486Y-15517943D01*
X3726200Y-15532229D01*
X3697628Y-15546514D01*
X3669057Y-15546514D01*
X3640486Y-15532229D01*
X3626200Y-15517943D01*
X3611914Y-15489371D01*
X3597628Y-15432229D01*
X3597628Y-15360800D01*
X3611914Y-15303657D01*
X3626200Y-15275086D01*
X3640486Y-15260800D01*
X3669057Y-15246514D01*
X3954771Y-15246514D02*
X3983343Y-15246514D01*
X4011914Y-15260800D01*
X4026200Y-15275086D01*
X4040486Y-15303657D01*
X4054771Y-15360800D01*
X4054771Y-15432229D01*
X4040486Y-15489371D01*
X4026200Y-15517943D01*
X4011914Y-15532229D01*
X3983343Y-15546514D01*
X3954771Y-15546514D01*
X3926200Y-15532229D01*
X3911914Y-15517943D01*
X3897628Y-15489371D01*
X3883343Y-15432229D01*
X3883343Y-15360800D01*
X3897628Y-15303657D01*
X3911914Y-15275086D01*
X3926200Y-15260800D01*
X3954771Y-15246514D01*
X4183343Y-15546514D02*
X4183343Y-15346514D01*
X4183343Y-15375086D02*
X4197628Y-15360800D01*
X4226200Y-15346514D01*
X4269057Y-15346514D01*
X4297628Y-15360800D01*
X4311914Y-15389371D01*
X4311914Y-15546514D01*
X4311914Y-15389371D02*
X4326200Y-15360800D01*
X4354771Y-15346514D01*
X4397628Y-15346514D01*
X4426200Y-15360800D01*
X4440486Y-15389371D01*
X4440486Y-15546514D01*
X4583343Y-15546514D02*
X4583343Y-15346514D01*
X4583343Y-15375086D02*
X4597628Y-15360800D01*
X4626200Y-15346514D01*
X4669057Y-15346514D01*
X4697628Y-15360800D01*
X4711914Y-15389371D01*
X4711914Y-15546514D01*
X4711914Y-15389371D02*
X4726200Y-15360800D01*
X4754771Y-15346514D01*
X4797628Y-15346514D01*
X4826200Y-15360800D01*
X4840486Y-15389371D01*
X4840486Y-15546514D01*
X5426200Y-15232229D02*
X5169057Y-15617943D01*
X5811914Y-15246514D02*
X5840486Y-15246514D01*
X5869057Y-15260800D01*
X5883343Y-15275086D01*
X5897628Y-15303657D01*
X5911914Y-15360800D01*
X5911914Y-15432229D01*
X5897628Y-15489371D01*
X5883343Y-15517943D01*
X5869057Y-15532229D01*
X5840486Y-15546514D01*
X5811914Y-15546514D01*
X5783343Y-15532229D01*
X5769057Y-15517943D01*
X5754771Y-15489371D01*
X5740486Y-15432229D01*
X5740486Y-15360800D01*
X5754771Y-15303657D01*
X5769057Y-15275086D01*
X5783343Y-15260800D01*
X5811914Y-15246514D01*
X6040486Y-15517943D02*
X6054771Y-15532229D01*
X6040486Y-15546514D01*
X6026200Y-15532229D01*
X6040486Y-15517943D01*
X6040486Y-15546514D01*
X6340486Y-15546514D02*
X6169057Y-15546514D01*
X6254771Y-15546514D02*
X6254771Y-15246514D01*
X6226200Y-15289371D01*
X6197628Y-15317943D01*
X6169057Y-15332229D01*
X6626200Y-15546514D02*
X6454771Y-15546514D01*
X6540486Y-15546514D02*
X6540486Y-15246514D01*
X6511914Y-15289371D01*
X6483343Y-15317943D01*
X6454771Y-15332229D01*
X6797628Y-15375086D02*
X6769057Y-15360800D01*
X6754771Y-15346514D01*
X6740486Y-15317943D01*
X6740486Y-15303657D01*
X6754771Y-15275086D01*
X6769057Y-15260800D01*
X6797628Y-15246514D01*
X6854771Y-15246514D01*
X6883343Y-15260800D01*
X6897628Y-15275086D01*
X6911914Y-15303657D01*
X6911914Y-15317943D01*
X6897628Y-15346514D01*
X6883343Y-15360800D01*
X6854771Y-15375086D01*
X6797628Y-15375086D01*
X6769057Y-15389371D01*
X6754771Y-15403657D01*
X6740486Y-15432229D01*
X6740486Y-15489371D01*
X6754771Y-15517943D01*
X6769057Y-15532229D01*
X6797628Y-15546514D01*
X6854771Y-15546514D01*
X6883343Y-15532229D01*
X6897628Y-15517943D01*
X6911914Y-15489371D01*
X6911914Y-15432229D01*
X6897628Y-15403657D01*
X6883343Y-15389371D01*
X6854771Y-15375086D01*
X7197628Y-15546514D02*
X7026200Y-15546514D01*
X7111914Y-15546514D02*
X7111914Y-15246514D01*
X7083343Y-15289371D01*
X7054771Y-15317943D01*
X7026200Y-15332229D01*
X7311914Y-15246514D02*
X7311914Y-15303657D01*
X7426200Y-15246514D02*
X7426200Y-15303657D01*
X7869057Y-15660800D02*
X7854771Y-15646514D01*
X7826200Y-15603657D01*
X7811914Y-15575086D01*
X7797628Y-15532229D01*
X7783343Y-15460800D01*
X7783343Y-15403657D01*
X7797628Y-15332229D01*
X7811914Y-15289371D01*
X7826200Y-15260800D01*
X7854771Y-15217943D01*
X7869057Y-15203657D01*
X8111914Y-15346514D02*
X8111914Y-15546514D01*
X8040486Y-15232229D02*
X7969057Y-15446514D01*
X8154771Y-15446514D01*
X8497628Y-15546514D02*
X8497628Y-15246514D01*
X8626200Y-15546514D02*
X8626200Y-15389371D01*
X8611914Y-15360800D01*
X8583343Y-15346514D01*
X8540486Y-15346514D01*
X8511914Y-15360800D01*
X8497628Y-15375086D01*
X8811914Y-15546514D02*
X8783343Y-15532229D01*
X8769057Y-15517943D01*
X8754771Y-15489371D01*
X8754771Y-15403657D01*
X8769057Y-15375086D01*
X8783343Y-15360800D01*
X8811914Y-15346514D01*
X8854771Y-15346514D01*
X8883343Y-15360800D01*
X8897628Y-15375086D01*
X8911914Y-15403657D01*
X8911914Y-15489371D01*
X8897628Y-15517943D01*
X8883343Y-15532229D01*
X8854771Y-15546514D01*
X8811914Y-15546514D01*
X9083343Y-15546514D02*
X9054771Y-15532229D01*
X9040486Y-15503657D01*
X9040486Y-15246514D01*
X9311914Y-15532229D02*
X9283343Y-15546514D01*
X9226200Y-15546514D01*
X9197628Y-15532229D01*
X9183343Y-15503657D01*
X9183343Y-15389371D01*
X9197628Y-15360800D01*
X9226200Y-15346514D01*
X9283343Y-15346514D01*
X9311914Y-15360800D01*
X9326200Y-15389371D01*
X9326200Y-15417943D01*
X9183343Y-15446514D01*
X9440486Y-15532229D02*
X9469057Y-15546514D01*
X9526200Y-15546514D01*
X9554771Y-15532229D01*
X9569057Y-15503657D01*
X9569057Y-15489371D01*
X9554771Y-15460800D01*
X9526200Y-15446514D01*
X9483343Y-15446514D01*
X9454771Y-15432229D01*
X9440486Y-15403657D01*
X9440486Y-15389371D01*
X9454771Y-15360800D01*
X9483343Y-15346514D01*
X9526200Y-15346514D01*
X9554771Y-15360800D01*
X9669057Y-15660800D02*
X9683343Y-15646514D01*
X9711914Y-15603657D01*
X9726200Y-15575086D01*
X9740486Y-15532229D01*
X9754771Y-15460800D01*
X9754771Y-15403657D01*
X9740486Y-15332229D01*
X9726200Y-15289371D01*
X9711914Y-15260800D01*
X9683343Y-15217943D01*
X9669057Y-15203657D01*
M02*
