%FSLAX45Y45*%
G04 Gerber Fmt 4.5, Leading zero omitted, Abs format (unit mm)*
G04 Created by KiCad (PCBNEW 5.1.10-88a1d61d58~88~ubuntu18.04.1) date 2021-09-30 10:19:48*
%MOMM*%
%LPD*%
G01*
G04 APERTURE LIST*
%TA.AperFunction,Profile*%
%ADD10C,0.100000*%
%TD*%
%ADD11C,0.200000*%
%ADD12C,0.300000*%
G04 APERTURE END LIST*
D10*
X10616200Y-5257800D02*
X10616200Y-13257800D01*
X2616200Y-5257800D02*
X10616200Y-5257800D01*
X2616200Y-13257800D02*
X2616200Y-5257800D01*
X10616200Y-13257800D02*
X2616200Y-13257800D01*
D11*
X3719200Y-6352600D02*
X3799200Y-6432600D01*
X3799200Y-6352600D02*
X3719200Y-6432600D01*
X3719200Y-12069600D02*
X3799200Y-12149600D01*
X3799200Y-12069600D02*
X3719200Y-12149600D01*
X9436200Y-6352600D02*
X9516200Y-6432600D01*
X9516200Y-6352600D02*
X9436200Y-6432600D01*
X9436200Y-12069600D02*
X9516200Y-12149600D01*
X9516200Y-12069600D02*
X9436200Y-12149600D01*
D12*
X2897628Y-13728514D02*
X2897628Y-13428514D01*
X2969057Y-13428514D01*
X3011914Y-13442800D01*
X3040486Y-13471371D01*
X3054771Y-13499943D01*
X3069057Y-13557086D01*
X3069057Y-13599943D01*
X3054771Y-13657086D01*
X3040486Y-13685657D01*
X3011914Y-13714229D01*
X2969057Y-13728514D01*
X2897628Y-13728514D01*
X3197628Y-13728514D02*
X3197628Y-13528514D01*
X3197628Y-13585657D02*
X3211914Y-13557086D01*
X3226200Y-13542800D01*
X3254771Y-13528514D01*
X3283343Y-13528514D01*
X3383343Y-13728514D02*
X3383343Y-13528514D01*
X3383343Y-13428514D02*
X3369057Y-13442800D01*
X3383343Y-13457086D01*
X3397628Y-13442800D01*
X3383343Y-13428514D01*
X3383343Y-13457086D01*
X3569057Y-13728514D02*
X3540486Y-13714229D01*
X3526200Y-13685657D01*
X3526200Y-13428514D01*
X3726200Y-13728514D02*
X3697628Y-13714229D01*
X3683343Y-13685657D01*
X3683343Y-13428514D01*
X4069057Y-13728514D02*
X4069057Y-13428514D01*
X4169057Y-13642800D01*
X4269057Y-13428514D01*
X4269057Y-13728514D01*
X4540486Y-13728514D02*
X4540486Y-13571371D01*
X4526200Y-13542800D01*
X4497628Y-13528514D01*
X4440486Y-13528514D01*
X4411914Y-13542800D01*
X4540486Y-13714229D02*
X4511914Y-13728514D01*
X4440486Y-13728514D01*
X4411914Y-13714229D01*
X4397628Y-13685657D01*
X4397628Y-13657086D01*
X4411914Y-13628514D01*
X4440486Y-13614229D01*
X4511914Y-13614229D01*
X4540486Y-13599943D01*
X4683343Y-13528514D02*
X4683343Y-13828514D01*
X4683343Y-13542800D02*
X4711914Y-13528514D01*
X4769057Y-13528514D01*
X4797628Y-13542800D01*
X4811914Y-13557086D01*
X4826200Y-13585657D01*
X4826200Y-13671371D01*
X4811914Y-13699943D01*
X4797628Y-13714229D01*
X4769057Y-13728514D01*
X4711914Y-13728514D01*
X4683343Y-13714229D01*
X4954771Y-13699943D02*
X4969057Y-13714229D01*
X4954771Y-13728514D01*
X4940486Y-13714229D01*
X4954771Y-13699943D01*
X4954771Y-13728514D01*
X4954771Y-13542800D02*
X4969057Y-13557086D01*
X4954771Y-13571371D01*
X4940486Y-13557086D01*
X4954771Y-13542800D01*
X4954771Y-13571371D01*
X2531200Y-14182800D02*
X2611200Y-14262800D01*
X2611200Y-14182800D02*
X2531200Y-14262800D01*
X2954771Y-14058514D02*
X2983343Y-14058514D01*
X3011914Y-14072800D01*
X3026200Y-14087086D01*
X3040486Y-14115657D01*
X3054771Y-14172800D01*
X3054771Y-14244229D01*
X3040486Y-14301371D01*
X3026200Y-14329943D01*
X3011914Y-14344229D01*
X2983343Y-14358514D01*
X2954771Y-14358514D01*
X2926200Y-14344229D01*
X2911914Y-14329943D01*
X2897628Y-14301371D01*
X2883343Y-14244229D01*
X2883343Y-14172800D01*
X2897628Y-14115657D01*
X2911914Y-14087086D01*
X2926200Y-14072800D01*
X2954771Y-14058514D01*
X3183343Y-14329943D02*
X3197628Y-14344229D01*
X3183343Y-14358514D01*
X3169057Y-14344229D01*
X3183343Y-14329943D01*
X3183343Y-14358514D01*
X3369057Y-14187086D02*
X3340486Y-14172800D01*
X3326200Y-14158514D01*
X3311914Y-14129943D01*
X3311914Y-14115657D01*
X3326200Y-14087086D01*
X3340486Y-14072800D01*
X3369057Y-14058514D01*
X3426200Y-14058514D01*
X3454771Y-14072800D01*
X3469057Y-14087086D01*
X3483343Y-14115657D01*
X3483343Y-14129943D01*
X3469057Y-14158514D01*
X3454771Y-14172800D01*
X3426200Y-14187086D01*
X3369057Y-14187086D01*
X3340486Y-14201371D01*
X3326200Y-14215657D01*
X3311914Y-14244229D01*
X3311914Y-14301371D01*
X3326200Y-14329943D01*
X3340486Y-14344229D01*
X3369057Y-14358514D01*
X3426200Y-14358514D01*
X3454771Y-14344229D01*
X3469057Y-14329943D01*
X3483343Y-14301371D01*
X3483343Y-14244229D01*
X3469057Y-14215657D01*
X3454771Y-14201371D01*
X3426200Y-14187086D01*
X3669057Y-14058514D02*
X3697628Y-14058514D01*
X3726200Y-14072800D01*
X3740486Y-14087086D01*
X3754771Y-14115657D01*
X3769057Y-14172800D01*
X3769057Y-14244229D01*
X3754771Y-14301371D01*
X3740486Y-14329943D01*
X3726200Y-14344229D01*
X3697628Y-14358514D01*
X3669057Y-14358514D01*
X3640486Y-14344229D01*
X3626200Y-14329943D01*
X3611914Y-14301371D01*
X3597628Y-14244229D01*
X3597628Y-14172800D01*
X3611914Y-14115657D01*
X3626200Y-14087086D01*
X3640486Y-14072800D01*
X3669057Y-14058514D01*
X3954771Y-14058514D02*
X3983343Y-14058514D01*
X4011914Y-14072800D01*
X4026200Y-14087086D01*
X4040486Y-14115657D01*
X4054771Y-14172800D01*
X4054771Y-14244229D01*
X4040486Y-14301371D01*
X4026200Y-14329943D01*
X4011914Y-14344229D01*
X3983343Y-14358514D01*
X3954771Y-14358514D01*
X3926200Y-14344229D01*
X3911914Y-14329943D01*
X3897628Y-14301371D01*
X3883343Y-14244229D01*
X3883343Y-14172800D01*
X3897628Y-14115657D01*
X3911914Y-14087086D01*
X3926200Y-14072800D01*
X3954771Y-14058514D01*
X4183343Y-14358514D02*
X4183343Y-14158514D01*
X4183343Y-14187086D02*
X4197628Y-14172800D01*
X4226200Y-14158514D01*
X4269057Y-14158514D01*
X4297628Y-14172800D01*
X4311914Y-14201371D01*
X4311914Y-14358514D01*
X4311914Y-14201371D02*
X4326200Y-14172800D01*
X4354771Y-14158514D01*
X4397628Y-14158514D01*
X4426200Y-14172800D01*
X4440486Y-14201371D01*
X4440486Y-14358514D01*
X4583343Y-14358514D02*
X4583343Y-14158514D01*
X4583343Y-14187086D02*
X4597628Y-14172800D01*
X4626200Y-14158514D01*
X4669057Y-14158514D01*
X4697628Y-14172800D01*
X4711914Y-14201371D01*
X4711914Y-14358514D01*
X4711914Y-14201371D02*
X4726200Y-14172800D01*
X4754771Y-14158514D01*
X4797628Y-14158514D01*
X4826200Y-14172800D01*
X4840486Y-14201371D01*
X4840486Y-14358514D01*
X5426200Y-14044229D02*
X5169057Y-14429943D01*
X5811914Y-14058514D02*
X5840486Y-14058514D01*
X5869057Y-14072800D01*
X5883343Y-14087086D01*
X5897628Y-14115657D01*
X5911914Y-14172800D01*
X5911914Y-14244229D01*
X5897628Y-14301371D01*
X5883343Y-14329943D01*
X5869057Y-14344229D01*
X5840486Y-14358514D01*
X5811914Y-14358514D01*
X5783343Y-14344229D01*
X5769057Y-14329943D01*
X5754771Y-14301371D01*
X5740486Y-14244229D01*
X5740486Y-14172800D01*
X5754771Y-14115657D01*
X5769057Y-14087086D01*
X5783343Y-14072800D01*
X5811914Y-14058514D01*
X6040486Y-14329943D02*
X6054771Y-14344229D01*
X6040486Y-14358514D01*
X6026200Y-14344229D01*
X6040486Y-14329943D01*
X6040486Y-14358514D01*
X6240486Y-14058514D02*
X6269057Y-14058514D01*
X6297628Y-14072800D01*
X6311914Y-14087086D01*
X6326200Y-14115657D01*
X6340486Y-14172800D01*
X6340486Y-14244229D01*
X6326200Y-14301371D01*
X6311914Y-14329943D01*
X6297628Y-14344229D01*
X6269057Y-14358514D01*
X6240486Y-14358514D01*
X6211914Y-14344229D01*
X6197628Y-14329943D01*
X6183343Y-14301371D01*
X6169057Y-14244229D01*
X6169057Y-14172800D01*
X6183343Y-14115657D01*
X6197628Y-14087086D01*
X6211914Y-14072800D01*
X6240486Y-14058514D01*
X6440486Y-14058514D02*
X6626200Y-14058514D01*
X6526200Y-14172800D01*
X6569057Y-14172800D01*
X6597628Y-14187086D01*
X6611914Y-14201371D01*
X6626200Y-14229943D01*
X6626200Y-14301371D01*
X6611914Y-14329943D01*
X6597628Y-14344229D01*
X6569057Y-14358514D01*
X6483343Y-14358514D01*
X6454771Y-14344229D01*
X6440486Y-14329943D01*
X6911914Y-14358514D02*
X6740486Y-14358514D01*
X6826200Y-14358514D02*
X6826200Y-14058514D01*
X6797628Y-14101371D01*
X6769057Y-14129943D01*
X6740486Y-14144229D01*
X7183343Y-14058514D02*
X7040486Y-14058514D01*
X7026200Y-14201371D01*
X7040486Y-14187086D01*
X7069057Y-14172800D01*
X7140486Y-14172800D01*
X7169057Y-14187086D01*
X7183343Y-14201371D01*
X7197628Y-14229943D01*
X7197628Y-14301371D01*
X7183343Y-14329943D01*
X7169057Y-14344229D01*
X7140486Y-14358514D01*
X7069057Y-14358514D01*
X7040486Y-14344229D01*
X7026200Y-14329943D01*
X7311914Y-14058514D02*
X7311914Y-14115657D01*
X7426200Y-14058514D02*
X7426200Y-14115657D01*
X7869057Y-14472800D02*
X7854771Y-14458514D01*
X7826200Y-14415657D01*
X7811914Y-14387086D01*
X7797628Y-14344229D01*
X7783343Y-14272800D01*
X7783343Y-14215657D01*
X7797628Y-14144229D01*
X7811914Y-14101371D01*
X7826200Y-14072800D01*
X7854771Y-14029943D01*
X7869057Y-14015657D01*
X8111914Y-14158514D02*
X8111914Y-14358514D01*
X8040486Y-14044229D02*
X7969057Y-14258514D01*
X8154771Y-14258514D01*
X8497628Y-14358514D02*
X8497628Y-14058514D01*
X8626200Y-14358514D02*
X8626200Y-14201371D01*
X8611914Y-14172800D01*
X8583343Y-14158514D01*
X8540486Y-14158514D01*
X8511914Y-14172800D01*
X8497628Y-14187086D01*
X8811914Y-14358514D02*
X8783343Y-14344229D01*
X8769057Y-14329943D01*
X8754771Y-14301371D01*
X8754771Y-14215657D01*
X8769057Y-14187086D01*
X8783343Y-14172800D01*
X8811914Y-14158514D01*
X8854771Y-14158514D01*
X8883343Y-14172800D01*
X8897628Y-14187086D01*
X8911914Y-14215657D01*
X8911914Y-14301371D01*
X8897628Y-14329943D01*
X8883343Y-14344229D01*
X8854771Y-14358514D01*
X8811914Y-14358514D01*
X9083343Y-14358514D02*
X9054771Y-14344229D01*
X9040486Y-14315657D01*
X9040486Y-14058514D01*
X9311914Y-14344229D02*
X9283343Y-14358514D01*
X9226200Y-14358514D01*
X9197628Y-14344229D01*
X9183343Y-14315657D01*
X9183343Y-14201371D01*
X9197628Y-14172800D01*
X9226200Y-14158514D01*
X9283343Y-14158514D01*
X9311914Y-14172800D01*
X9326200Y-14201371D01*
X9326200Y-14229943D01*
X9183343Y-14258514D01*
X9440486Y-14344229D02*
X9469057Y-14358514D01*
X9526200Y-14358514D01*
X9554771Y-14344229D01*
X9569057Y-14315657D01*
X9569057Y-14301371D01*
X9554771Y-14272800D01*
X9526200Y-14258514D01*
X9483343Y-14258514D01*
X9454771Y-14244229D01*
X9440486Y-14215657D01*
X9440486Y-14201371D01*
X9454771Y-14172800D01*
X9483343Y-14158514D01*
X9526200Y-14158514D01*
X9554771Y-14172800D01*
X9669057Y-14472800D02*
X9683343Y-14458514D01*
X9711914Y-14415657D01*
X9726200Y-14387086D01*
X9740486Y-14344229D01*
X9754771Y-14272800D01*
X9754771Y-14215657D01*
X9740486Y-14144229D01*
X9726200Y-14101371D01*
X9711914Y-14072800D01*
X9683343Y-14029943D01*
X9669057Y-14015657D01*
X10211914Y-14472800D02*
X10197628Y-14458514D01*
X10169057Y-14415657D01*
X10154771Y-14387086D01*
X10140486Y-14344229D01*
X10126200Y-14272800D01*
X10126200Y-14215657D01*
X10140486Y-14144229D01*
X10154771Y-14101371D01*
X10169057Y-14072800D01*
X10197628Y-14029943D01*
X10211914Y-14015657D01*
X10326200Y-14158514D02*
X10326200Y-14358514D01*
X10326200Y-14187086D02*
X10340486Y-14172800D01*
X10369057Y-14158514D01*
X10411914Y-14158514D01*
X10440486Y-14172800D01*
X10454771Y-14201371D01*
X10454771Y-14358514D01*
X10640486Y-14358514D02*
X10611914Y-14344229D01*
X10597628Y-14329943D01*
X10583343Y-14301371D01*
X10583343Y-14215657D01*
X10597628Y-14187086D01*
X10611914Y-14172800D01*
X10640486Y-14158514D01*
X10683343Y-14158514D01*
X10711914Y-14172800D01*
X10726200Y-14187086D01*
X10740486Y-14215657D01*
X10740486Y-14301371D01*
X10726200Y-14329943D01*
X10711914Y-14344229D01*
X10683343Y-14358514D01*
X10640486Y-14358514D01*
X10826200Y-14158514D02*
X10940486Y-14158514D01*
X10869057Y-14058514D02*
X10869057Y-14315657D01*
X10883343Y-14344229D01*
X10911914Y-14358514D01*
X10940486Y-14358514D01*
X11269057Y-14158514D02*
X11269057Y-14458514D01*
X11269057Y-14172800D02*
X11297628Y-14158514D01*
X11354771Y-14158514D01*
X11383343Y-14172800D01*
X11397628Y-14187086D01*
X11411914Y-14215657D01*
X11411914Y-14301371D01*
X11397628Y-14329943D01*
X11383343Y-14344229D01*
X11354771Y-14358514D01*
X11297628Y-14358514D01*
X11269057Y-14344229D01*
X11583343Y-14358514D02*
X11554771Y-14344229D01*
X11540486Y-14315657D01*
X11540486Y-14058514D01*
X11826200Y-14358514D02*
X11826200Y-14201371D01*
X11811914Y-14172800D01*
X11783343Y-14158514D01*
X11726200Y-14158514D01*
X11697628Y-14172800D01*
X11826200Y-14344229D02*
X11797628Y-14358514D01*
X11726200Y-14358514D01*
X11697628Y-14344229D01*
X11683343Y-14315657D01*
X11683343Y-14287086D01*
X11697628Y-14258514D01*
X11726200Y-14244229D01*
X11797628Y-14244229D01*
X11826200Y-14229943D01*
X11926200Y-14158514D02*
X12040486Y-14158514D01*
X11969057Y-14058514D02*
X11969057Y-14315657D01*
X11983343Y-14344229D01*
X12011914Y-14358514D01*
X12040486Y-14358514D01*
X12254771Y-14344229D02*
X12226200Y-14358514D01*
X12169057Y-14358514D01*
X12140486Y-14344229D01*
X12126200Y-14315657D01*
X12126200Y-14201371D01*
X12140486Y-14172800D01*
X12169057Y-14158514D01*
X12226200Y-14158514D01*
X12254771Y-14172800D01*
X12269057Y-14201371D01*
X12269057Y-14229943D01*
X12126200Y-14258514D01*
X12526200Y-14358514D02*
X12526200Y-14058514D01*
X12526200Y-14344229D02*
X12497628Y-14358514D01*
X12440486Y-14358514D01*
X12411914Y-14344229D01*
X12397628Y-14329943D01*
X12383343Y-14301371D01*
X12383343Y-14215657D01*
X12397628Y-14187086D01*
X12411914Y-14172800D01*
X12440486Y-14158514D01*
X12497628Y-14158514D01*
X12526200Y-14172800D01*
X12640486Y-14472800D02*
X12654771Y-14458514D01*
X12683343Y-14415657D01*
X12697628Y-14387086D01*
X12711914Y-14344229D01*
X12726200Y-14272800D01*
X12726200Y-14215657D01*
X12711914Y-14144229D01*
X12697628Y-14101371D01*
X12683343Y-14072800D01*
X12654771Y-14029943D01*
X12640486Y-14015657D01*
M02*
