G04 #@! TF.GenerationSoftware,KiCad,Pcbnew,5.1.10-88a1d61d58~88~ubuntu18.04.1*
G04 #@! TF.CreationDate,2021-09-30T10:17:39+02:00*
G04 #@! TF.ProjectId,pmod_microphone_array_2x1,706d6f64-5f6d-4696-9372-6f70686f6e65,1.0.0*
G04 #@! TF.SameCoordinates,Original*
G04 #@! TF.FileFunction,Soldermask,Top*
G04 #@! TF.FilePolarity,Negative*
%FSLAX46Y46*%
G04 Gerber Fmt 4.6, Leading zero omitted, Abs format (unit mm)*
G04 Created by KiCad (PCBNEW 5.1.10-88a1d61d58~88~ubuntu18.04.1) date 2021-09-30 10:17:39*
%MOMM*%
%LPD*%
G01*
G04 APERTURE LIST*
%ADD10C,0.800000*%
%ADD11R,1.200000X1.200000*%
%ADD12C,1.200000*%
G04 APERTURE END LIST*
D10*
X98318000Y-62656000D03*
X41148000Y-62656000D03*
D11*
X30226000Y-56388000D03*
D12*
X30226000Y-58928000D03*
X30226000Y-61468000D03*
X30226000Y-64008000D03*
X30226000Y-66548000D03*
X30226000Y-69088000D03*
G36*
G01*
X31983000Y-61639000D02*
X32533000Y-61639000D01*
G75*
G02*
X32733000Y-61839000I0J-200000D01*
G01*
X32733000Y-62239000D01*
G75*
G02*
X32533000Y-62439000I-200000J0D01*
G01*
X31983000Y-62439000D01*
G75*
G02*
X31783000Y-62239000I0J200000D01*
G01*
X31783000Y-61839000D01*
G75*
G02*
X31983000Y-61639000I200000J0D01*
G01*
G37*
G36*
G01*
X31983000Y-59989000D02*
X32533000Y-59989000D01*
G75*
G02*
X32733000Y-60189000I0J-200000D01*
G01*
X32733000Y-60589000D01*
G75*
G02*
X32533000Y-60789000I-200000J0D01*
G01*
X31983000Y-60789000D01*
G75*
G02*
X31783000Y-60589000I0J200000D01*
G01*
X31783000Y-60189000D01*
G75*
G02*
X31983000Y-59989000I200000J0D01*
G01*
G37*
G36*
G01*
X32514250Y-63912000D02*
X32001750Y-63912000D01*
G75*
G02*
X31783000Y-63693250I0J218750D01*
G01*
X31783000Y-63255750D01*
G75*
G02*
X32001750Y-63037000I218750J0D01*
G01*
X32514250Y-63037000D01*
G75*
G02*
X32733000Y-63255750I0J-218750D01*
G01*
X32733000Y-63693250D01*
G75*
G02*
X32514250Y-63912000I-218750J0D01*
G01*
G37*
G36*
G01*
X32514250Y-65487000D02*
X32001750Y-65487000D01*
G75*
G02*
X31783000Y-65268250I0J218750D01*
G01*
X31783000Y-64830750D01*
G75*
G02*
X32001750Y-64612000I218750J0D01*
G01*
X32514250Y-64612000D01*
G75*
G02*
X32733000Y-64830750I0J-218750D01*
G01*
X32733000Y-65268250D01*
G75*
G02*
X32514250Y-65487000I-218750J0D01*
G01*
G37*
M02*
