G04 #@! TF.GenerationSoftware,KiCad,Pcbnew,5.1.10-88a1d61d58~88~ubuntu18.04.1*
G04 #@! TF.CreationDate,2021-09-30T10:17:39+02:00*
G04 #@! TF.ProjectId,pmod_microphone_array_2x1,706d6f64-5f6d-4696-9372-6f70686f6e65,1.0.0*
G04 #@! TF.SameCoordinates,Original*
G04 #@! TF.FileFunction,Copper,L1,Top*
G04 #@! TF.FilePolarity,Positive*
%FSLAX46Y46*%
G04 Gerber Fmt 4.6, Leading zero omitted, Abs format (unit mm)*
G04 Created by KiCad (PCBNEW 5.1.10-88a1d61d58~88~ubuntu18.04.1) date 2021-09-30 10:17:39*
%MOMM*%
%LPD*%
G01*
G04 APERTURE LIST*
G04 #@! TA.AperFunction,ComponentPad*
%ADD10R,1.200000X1.200000*%
G04 #@! TD*
G04 #@! TA.AperFunction,ComponentPad*
%ADD11C,1.200000*%
G04 #@! TD*
G04 #@! TA.AperFunction,ViaPad*
%ADD12C,5.000000*%
G04 #@! TD*
G04 #@! TA.AperFunction,ViaPad*
%ADD13C,0.900000*%
G04 #@! TD*
G04 #@! TA.AperFunction,ViaPad*
%ADD14C,0.800000*%
G04 #@! TD*
G04 #@! TA.AperFunction,Conductor*
%ADD15C,0.650000*%
G04 #@! TD*
G04 #@! TA.AperFunction,Conductor*
%ADD16C,0.254000*%
G04 #@! TD*
G04 #@! TA.AperFunction,Conductor*
%ADD17C,0.100000*%
G04 #@! TD*
G04 APERTURE END LIST*
D10*
X30226000Y-56388000D03*
D11*
X30226000Y-58928000D03*
X30226000Y-61468000D03*
X30226000Y-64008000D03*
X30226000Y-66548000D03*
X30226000Y-69088000D03*
G04 #@! TA.AperFunction,SMDPad,CuDef*
G36*
G01*
X31983000Y-61639000D02*
X32533000Y-61639000D01*
G75*
G02*
X32733000Y-61839000I0J-200000D01*
G01*
X32733000Y-62239000D01*
G75*
G02*
X32533000Y-62439000I-200000J0D01*
G01*
X31983000Y-62439000D01*
G75*
G02*
X31783000Y-62239000I0J200000D01*
G01*
X31783000Y-61839000D01*
G75*
G02*
X31983000Y-61639000I200000J0D01*
G01*
G37*
G04 #@! TD.AperFunction*
G04 #@! TA.AperFunction,SMDPad,CuDef*
G36*
G01*
X31983000Y-59989000D02*
X32533000Y-59989000D01*
G75*
G02*
X32733000Y-60189000I0J-200000D01*
G01*
X32733000Y-60589000D01*
G75*
G02*
X32533000Y-60789000I-200000J0D01*
G01*
X31983000Y-60789000D01*
G75*
G02*
X31783000Y-60589000I0J200000D01*
G01*
X31783000Y-60189000D01*
G75*
G02*
X31983000Y-59989000I200000J0D01*
G01*
G37*
G04 #@! TD.AperFunction*
G04 #@! TA.AperFunction,SMDPad,CuDef*
G36*
G01*
X32514250Y-63912000D02*
X32001750Y-63912000D01*
G75*
G02*
X31783000Y-63693250I0J218750D01*
G01*
X31783000Y-63255750D01*
G75*
G02*
X32001750Y-63037000I218750J0D01*
G01*
X32514250Y-63037000D01*
G75*
G02*
X32733000Y-63255750I0J-218750D01*
G01*
X32733000Y-63693250D01*
G75*
G02*
X32514250Y-63912000I-218750J0D01*
G01*
G37*
G04 #@! TD.AperFunction*
G04 #@! TA.AperFunction,SMDPad,CuDef*
G36*
G01*
X32514250Y-65487000D02*
X32001750Y-65487000D01*
G75*
G02*
X31783000Y-65268250I0J218750D01*
G01*
X31783000Y-64830750D01*
G75*
G02*
X32001750Y-64612000I218750J0D01*
G01*
X32514250Y-64612000D01*
G75*
G02*
X32733000Y-64830750I0J-218750D01*
G01*
X32733000Y-65268250D01*
G75*
G02*
X32514250Y-65487000I-218750J0D01*
G01*
G37*
G04 #@! TD.AperFunction*
D12*
X69733000Y-62738000D03*
D13*
X94234000Y-61214000D03*
X37084000Y-61214000D03*
D14*
X99060000Y-59436000D03*
X41910000Y-59436000D03*
D15*
X30226000Y-66548000D02*
X31750000Y-66548000D01*
X32258000Y-66040000D02*
X32258000Y-65049500D01*
X31750000Y-66548000D02*
X32258000Y-66040000D01*
X35560000Y-56388000D02*
X37846000Y-58674000D01*
X30226000Y-56388000D02*
X35560000Y-56388000D01*
X37846000Y-58674000D02*
X41656000Y-58674000D01*
X98298000Y-58674000D02*
X97536000Y-58674000D01*
X99060000Y-59436000D02*
X98298000Y-58674000D01*
X41656000Y-58674000D02*
X97536000Y-58674000D01*
X41910000Y-58928000D02*
X41656000Y-58674000D01*
X41910000Y-59436000D02*
X41910000Y-58928000D01*
X32258000Y-62039000D02*
X32258000Y-63474500D01*
D16*
X105731001Y-72467000D02*
X26593000Y-72467000D01*
X26593000Y-69801042D01*
X29692563Y-69801042D01*
X29754166Y-69953489D01*
X29932081Y-70028909D01*
X30121291Y-70068171D01*
X30314525Y-70069765D01*
X30504356Y-70033630D01*
X30683491Y-69961155D01*
X30697834Y-69953489D01*
X30759437Y-69801042D01*
X30226000Y-69267605D01*
X29692563Y-69801042D01*
X26593000Y-69801042D01*
X26593000Y-69176525D01*
X29244235Y-69176525D01*
X29280370Y-69366356D01*
X29352845Y-69545491D01*
X29360511Y-69559834D01*
X29512958Y-69621437D01*
X30046395Y-69088000D01*
X30405605Y-69088000D01*
X30939042Y-69621437D01*
X31091489Y-69559834D01*
X31166909Y-69381919D01*
X31206171Y-69192709D01*
X31207765Y-68999475D01*
X31171630Y-68809644D01*
X31099155Y-68630509D01*
X31091489Y-68616166D01*
X30939042Y-68554563D01*
X30405605Y-69088000D01*
X30046395Y-69088000D01*
X29512958Y-68554563D01*
X29360511Y-68616166D01*
X29285091Y-68794081D01*
X29245829Y-68983291D01*
X29244235Y-69176525D01*
X26593000Y-69176525D01*
X26593000Y-68374958D01*
X29692563Y-68374958D01*
X30226000Y-68908395D01*
X30759437Y-68374958D01*
X30697834Y-68222511D01*
X30519919Y-68147091D01*
X30330709Y-68107829D01*
X30137475Y-68106235D01*
X29947644Y-68142370D01*
X29768509Y-68214845D01*
X29754166Y-68222511D01*
X29692563Y-68374958D01*
X26593000Y-68374958D01*
X26593000Y-66451380D01*
X29245000Y-66451380D01*
X29245000Y-66644620D01*
X29282699Y-66834147D01*
X29356649Y-67012678D01*
X29464007Y-67173351D01*
X29600649Y-67309993D01*
X29761322Y-67417351D01*
X29939853Y-67491301D01*
X30129380Y-67529000D01*
X30322620Y-67529000D01*
X30512147Y-67491301D01*
X30690678Y-67417351D01*
X30851351Y-67309993D01*
X30907344Y-67254000D01*
X31715319Y-67254000D01*
X31750000Y-67257416D01*
X31784681Y-67254000D01*
X31784684Y-67254000D01*
X31888400Y-67243785D01*
X32021482Y-67203415D01*
X32144130Y-67137858D01*
X32251633Y-67049633D01*
X32273746Y-67022688D01*
X32732697Y-66563738D01*
X32759632Y-66541633D01*
X32781738Y-66514697D01*
X32781742Y-66514693D01*
X32847857Y-66434132D01*
X32852090Y-66426213D01*
X32913415Y-66311482D01*
X32953785Y-66178400D01*
X32964000Y-66074684D01*
X32964000Y-66074675D01*
X32967415Y-66040001D01*
X32964000Y-66005327D01*
X32964000Y-65663957D01*
X33014456Y-65602477D01*
X33070049Y-65498470D01*
X33104284Y-65385615D01*
X33115843Y-65268250D01*
X33115843Y-64830750D01*
X33104284Y-64713385D01*
X33070049Y-64600530D01*
X33014456Y-64496523D01*
X32939640Y-64405360D01*
X32848477Y-64330544D01*
X32744470Y-64274951D01*
X32701777Y-64262000D01*
X32744470Y-64249049D01*
X32848477Y-64193456D01*
X32939640Y-64118640D01*
X33014456Y-64027477D01*
X33070049Y-63923470D01*
X33104284Y-63810615D01*
X33115843Y-63693250D01*
X33115843Y-63255750D01*
X33104284Y-63138385D01*
X33070049Y-63025530D01*
X33014456Y-62921523D01*
X32964000Y-62860043D01*
X32964000Y-62628141D01*
X33004265Y-62579078D01*
X40367000Y-62579078D01*
X40367000Y-62732922D01*
X40397013Y-62883809D01*
X40455887Y-63025942D01*
X40541358Y-63153859D01*
X40650141Y-63262642D01*
X40778058Y-63348113D01*
X40920191Y-63406987D01*
X41071078Y-63437000D01*
X41224922Y-63437000D01*
X41375809Y-63406987D01*
X41517942Y-63348113D01*
X41645859Y-63262642D01*
X41754642Y-63153859D01*
X41840113Y-63025942D01*
X41898987Y-62883809D01*
X41929000Y-62732922D01*
X41929000Y-62579078D01*
X41904170Y-62454246D01*
X66852000Y-62454246D01*
X66852000Y-63021754D01*
X66962715Y-63578357D01*
X67179891Y-64102665D01*
X67495181Y-64574530D01*
X67896470Y-64975819D01*
X68368335Y-65291109D01*
X68892643Y-65508285D01*
X69449246Y-65619000D01*
X70016754Y-65619000D01*
X70573357Y-65508285D01*
X71097665Y-65291109D01*
X71569530Y-64975819D01*
X71970819Y-64574530D01*
X72286109Y-64102665D01*
X72503285Y-63578357D01*
X72614000Y-63021754D01*
X72614000Y-62579078D01*
X97537000Y-62579078D01*
X97537000Y-62732922D01*
X97567013Y-62883809D01*
X97625887Y-63025942D01*
X97711358Y-63153859D01*
X97820141Y-63262642D01*
X97948058Y-63348113D01*
X98090191Y-63406987D01*
X98241078Y-63437000D01*
X98394922Y-63437000D01*
X98545809Y-63406987D01*
X98687942Y-63348113D01*
X98815859Y-63262642D01*
X98924642Y-63153859D01*
X99010113Y-63025942D01*
X99068987Y-62883809D01*
X99099000Y-62732922D01*
X99099000Y-62579078D01*
X99068987Y-62428191D01*
X99010113Y-62286058D01*
X98924642Y-62158141D01*
X98815859Y-62049358D01*
X98687942Y-61963887D01*
X98545809Y-61905013D01*
X98394922Y-61875000D01*
X98241078Y-61875000D01*
X98090191Y-61905013D01*
X97948058Y-61963887D01*
X97820141Y-62049358D01*
X97711358Y-62158141D01*
X97625887Y-62286058D01*
X97567013Y-62428191D01*
X97537000Y-62579078D01*
X72614000Y-62579078D01*
X72614000Y-62454246D01*
X72503285Y-61897643D01*
X72286109Y-61373335D01*
X71970819Y-60901470D01*
X71569530Y-60500181D01*
X71097665Y-60184891D01*
X70573357Y-59967715D01*
X70016754Y-59857000D01*
X69449246Y-59857000D01*
X68892643Y-59967715D01*
X68368335Y-60184891D01*
X67896470Y-60500181D01*
X67495181Y-60901470D01*
X67179891Y-61373335D01*
X66962715Y-61897643D01*
X66852000Y-62454246D01*
X41904170Y-62454246D01*
X41898987Y-62428191D01*
X41840113Y-62286058D01*
X41754642Y-62158141D01*
X41645859Y-62049358D01*
X41517942Y-61963887D01*
X41375809Y-61905013D01*
X41224922Y-61875000D01*
X41071078Y-61875000D01*
X40920191Y-61905013D01*
X40778058Y-61963887D01*
X40650141Y-62049358D01*
X40541358Y-62158141D01*
X40455887Y-62286058D01*
X40397013Y-62428191D01*
X40367000Y-62579078D01*
X33004265Y-62579078D01*
X33017616Y-62562810D01*
X33071477Y-62462044D01*
X33104644Y-62352707D01*
X33115843Y-62239000D01*
X33115843Y-61839000D01*
X33104644Y-61725293D01*
X33071477Y-61615956D01*
X33017616Y-61515190D01*
X32945132Y-61426868D01*
X32856810Y-61354384D01*
X32756044Y-61300523D01*
X32646707Y-61267356D01*
X32533000Y-61256157D01*
X31983000Y-61256157D01*
X31869293Y-61267356D01*
X31759956Y-61300523D01*
X31659190Y-61354384D01*
X31570868Y-61426868D01*
X31498384Y-61515190D01*
X31444523Y-61615956D01*
X31411356Y-61725293D01*
X31400157Y-61839000D01*
X31400157Y-62239000D01*
X31411356Y-62352707D01*
X31444523Y-62462044D01*
X31498384Y-62562810D01*
X31552000Y-62628142D01*
X31552001Y-62860042D01*
X31501544Y-62921523D01*
X31445951Y-63025530D01*
X31411716Y-63138385D01*
X31400157Y-63255750D01*
X31400157Y-63693250D01*
X31411716Y-63810615D01*
X31445951Y-63923470D01*
X31501544Y-64027477D01*
X31576360Y-64118640D01*
X31667523Y-64193456D01*
X31771530Y-64249049D01*
X31814223Y-64262000D01*
X31771530Y-64274951D01*
X31667523Y-64330544D01*
X31576360Y-64405360D01*
X31501544Y-64496523D01*
X31445951Y-64600530D01*
X31411716Y-64713385D01*
X31400157Y-64830750D01*
X31400157Y-65268250D01*
X31411716Y-65385615D01*
X31445951Y-65498470D01*
X31501544Y-65602477D01*
X31552000Y-65663958D01*
X31552000Y-65747565D01*
X31457566Y-65842000D01*
X30907344Y-65842000D01*
X30851351Y-65786007D01*
X30690678Y-65678649D01*
X30512147Y-65604699D01*
X30322620Y-65567000D01*
X30129380Y-65567000D01*
X29939853Y-65604699D01*
X29761322Y-65678649D01*
X29600649Y-65786007D01*
X29464007Y-65922649D01*
X29356649Y-66083322D01*
X29282699Y-66261853D01*
X29245000Y-66451380D01*
X26593000Y-66451380D01*
X26593000Y-63911380D01*
X29245000Y-63911380D01*
X29245000Y-64104620D01*
X29282699Y-64294147D01*
X29356649Y-64472678D01*
X29464007Y-64633351D01*
X29600649Y-64769993D01*
X29761322Y-64877351D01*
X29939853Y-64951301D01*
X30129380Y-64989000D01*
X30322620Y-64989000D01*
X30512147Y-64951301D01*
X30690678Y-64877351D01*
X30851351Y-64769993D01*
X30987993Y-64633351D01*
X31095351Y-64472678D01*
X31169301Y-64294147D01*
X31207000Y-64104620D01*
X31207000Y-63911380D01*
X31169301Y-63721853D01*
X31095351Y-63543322D01*
X30987993Y-63382649D01*
X30851351Y-63246007D01*
X30690678Y-63138649D01*
X30512147Y-63064699D01*
X30322620Y-63027000D01*
X30129380Y-63027000D01*
X29939853Y-63064699D01*
X29761322Y-63138649D01*
X29600649Y-63246007D01*
X29464007Y-63382649D01*
X29356649Y-63543322D01*
X29282699Y-63721853D01*
X29245000Y-63911380D01*
X26593000Y-63911380D01*
X26593000Y-61371380D01*
X29245000Y-61371380D01*
X29245000Y-61564620D01*
X29282699Y-61754147D01*
X29356649Y-61932678D01*
X29464007Y-62093351D01*
X29600649Y-62229993D01*
X29761322Y-62337351D01*
X29939853Y-62411301D01*
X30129380Y-62449000D01*
X30322620Y-62449000D01*
X30512147Y-62411301D01*
X30690678Y-62337351D01*
X30851351Y-62229993D01*
X30987993Y-62093351D01*
X31095351Y-61932678D01*
X31169301Y-61754147D01*
X31207000Y-61564620D01*
X31207000Y-61371380D01*
X31169301Y-61181853D01*
X31095351Y-61003322D01*
X30987993Y-60842649D01*
X30934344Y-60789000D01*
X31400157Y-60789000D01*
X31407513Y-60863689D01*
X31429299Y-60935508D01*
X31464678Y-61001696D01*
X31512289Y-61059711D01*
X31570304Y-61107322D01*
X31636492Y-61142701D01*
X31708311Y-61164487D01*
X31783000Y-61171843D01*
X32035750Y-61170000D01*
X32131000Y-61074750D01*
X32131000Y-60516000D01*
X32385000Y-60516000D01*
X32385000Y-61074750D01*
X32480250Y-61170000D01*
X32733000Y-61171843D01*
X32807689Y-61164487D01*
X32879508Y-61142701D01*
X32945696Y-61107322D01*
X33003711Y-61059711D01*
X33051322Y-61001696D01*
X33086701Y-60935508D01*
X33108487Y-60863689D01*
X33115843Y-60789000D01*
X33114000Y-60611250D01*
X33018750Y-60516000D01*
X32385000Y-60516000D01*
X32131000Y-60516000D01*
X31497250Y-60516000D01*
X31402000Y-60611250D01*
X31400157Y-60789000D01*
X30934344Y-60789000D01*
X30851351Y-60706007D01*
X30690678Y-60598649D01*
X30512147Y-60524699D01*
X30322620Y-60487000D01*
X30129380Y-60487000D01*
X29939853Y-60524699D01*
X29761322Y-60598649D01*
X29600649Y-60706007D01*
X29464007Y-60842649D01*
X29356649Y-61003322D01*
X29282699Y-61181853D01*
X29245000Y-61371380D01*
X26593000Y-61371380D01*
X26593000Y-59989000D01*
X31400157Y-59989000D01*
X31402000Y-60166750D01*
X31497250Y-60262000D01*
X32131000Y-60262000D01*
X32131000Y-59703250D01*
X32385000Y-59703250D01*
X32385000Y-60262000D01*
X33018750Y-60262000D01*
X33114000Y-60166750D01*
X33115843Y-59989000D01*
X33108487Y-59914311D01*
X33086701Y-59842492D01*
X33051322Y-59776304D01*
X33003711Y-59718289D01*
X32945696Y-59670678D01*
X32879508Y-59635299D01*
X32807689Y-59613513D01*
X32733000Y-59606157D01*
X32480250Y-59608000D01*
X32385000Y-59703250D01*
X32131000Y-59703250D01*
X32035750Y-59608000D01*
X31783000Y-59606157D01*
X31708311Y-59613513D01*
X31636492Y-59635299D01*
X31570304Y-59670678D01*
X31512289Y-59718289D01*
X31464678Y-59776304D01*
X31429299Y-59842492D01*
X31407513Y-59914311D01*
X31400157Y-59989000D01*
X26593000Y-59989000D01*
X26593000Y-58831380D01*
X29245000Y-58831380D01*
X29245000Y-59024620D01*
X29282699Y-59214147D01*
X29356649Y-59392678D01*
X29464007Y-59553351D01*
X29600649Y-59689993D01*
X29761322Y-59797351D01*
X29939853Y-59871301D01*
X30129380Y-59909000D01*
X30322620Y-59909000D01*
X30512147Y-59871301D01*
X30690678Y-59797351D01*
X30851351Y-59689993D01*
X30987993Y-59553351D01*
X31095351Y-59392678D01*
X31169301Y-59214147D01*
X31207000Y-59024620D01*
X31207000Y-58831380D01*
X31169301Y-58641853D01*
X31095351Y-58463322D01*
X30987993Y-58302649D01*
X30851351Y-58166007D01*
X30690678Y-58058649D01*
X30512147Y-57984699D01*
X30322620Y-57947000D01*
X30129380Y-57947000D01*
X29939853Y-57984699D01*
X29761322Y-58058649D01*
X29600649Y-58166007D01*
X29464007Y-58302649D01*
X29356649Y-58463322D01*
X29282699Y-58641853D01*
X29245000Y-58831380D01*
X26593000Y-58831380D01*
X26593000Y-55788000D01*
X29243157Y-55788000D01*
X29243157Y-56988000D01*
X29250513Y-57062689D01*
X29272299Y-57134508D01*
X29307678Y-57200696D01*
X29355289Y-57258711D01*
X29413304Y-57306322D01*
X29479492Y-57341701D01*
X29551311Y-57363487D01*
X29626000Y-57370843D01*
X30826000Y-57370843D01*
X30900689Y-57363487D01*
X30972508Y-57341701D01*
X31038696Y-57306322D01*
X31096711Y-57258711D01*
X31144322Y-57200696D01*
X31179701Y-57134508D01*
X31191989Y-57094000D01*
X35267566Y-57094000D01*
X37322257Y-59148692D01*
X37344367Y-59175633D01*
X37451870Y-59263858D01*
X37574518Y-59329415D01*
X37707600Y-59369785D01*
X37811316Y-59380000D01*
X37811318Y-59380000D01*
X37845999Y-59383416D01*
X37880680Y-59380000D01*
X41129000Y-59380000D01*
X41129000Y-59512922D01*
X41159013Y-59663809D01*
X41217887Y-59805942D01*
X41303358Y-59933859D01*
X41412141Y-60042642D01*
X41540058Y-60128113D01*
X41682191Y-60186987D01*
X41833078Y-60217000D01*
X41986922Y-60217000D01*
X42137809Y-60186987D01*
X42279942Y-60128113D01*
X42407859Y-60042642D01*
X42516642Y-59933859D01*
X42602113Y-59805942D01*
X42660987Y-59663809D01*
X42691000Y-59512922D01*
X42691000Y-59380000D01*
X98005566Y-59380000D01*
X98322899Y-59697333D01*
X98367887Y-59805942D01*
X98453358Y-59933859D01*
X98562141Y-60042642D01*
X98690058Y-60128113D01*
X98832191Y-60186987D01*
X98983078Y-60217000D01*
X99136922Y-60217000D01*
X99287809Y-60186987D01*
X99429942Y-60128113D01*
X99557859Y-60042642D01*
X99666642Y-59933859D01*
X99752113Y-59805942D01*
X99810987Y-59663809D01*
X99841000Y-59512922D01*
X99841000Y-59359078D01*
X99810987Y-59208191D01*
X99752113Y-59066058D01*
X99666642Y-58938141D01*
X99557859Y-58829358D01*
X99429942Y-58743887D01*
X99321333Y-58698899D01*
X98821746Y-58199312D01*
X98799633Y-58172367D01*
X98692130Y-58084142D01*
X98569482Y-58018585D01*
X98436400Y-57978215D01*
X98332684Y-57968000D01*
X98332681Y-57968000D01*
X98298000Y-57964584D01*
X98263319Y-57968000D01*
X41690681Y-57968000D01*
X41656000Y-57964584D01*
X41621319Y-57968000D01*
X38138435Y-57968000D01*
X36083746Y-55913312D01*
X36061633Y-55886367D01*
X35954130Y-55798142D01*
X35831482Y-55732585D01*
X35698400Y-55692215D01*
X35594684Y-55682000D01*
X35594681Y-55682000D01*
X35560000Y-55678584D01*
X35525319Y-55682000D01*
X31191989Y-55682000D01*
X31179701Y-55641492D01*
X31144322Y-55575304D01*
X31096711Y-55517289D01*
X31038696Y-55469678D01*
X30972508Y-55434299D01*
X30900689Y-55412513D01*
X30826000Y-55405157D01*
X29626000Y-55405157D01*
X29551311Y-55412513D01*
X29479492Y-55434299D01*
X29413304Y-55469678D01*
X29355289Y-55517289D01*
X29307678Y-55575304D01*
X29272299Y-55641492D01*
X29250513Y-55713311D01*
X29243157Y-55788000D01*
X26593000Y-55788000D01*
X26593000Y-53009000D01*
X105731000Y-53009000D01*
X105731001Y-72467000D01*
G04 #@! TA.AperFunction,Conductor*
D17*
G36*
X105731001Y-72467000D02*
G01*
X26593000Y-72467000D01*
X26593000Y-69801042D01*
X29692563Y-69801042D01*
X29754166Y-69953489D01*
X29932081Y-70028909D01*
X30121291Y-70068171D01*
X30314525Y-70069765D01*
X30504356Y-70033630D01*
X30683491Y-69961155D01*
X30697834Y-69953489D01*
X30759437Y-69801042D01*
X30226000Y-69267605D01*
X29692563Y-69801042D01*
X26593000Y-69801042D01*
X26593000Y-69176525D01*
X29244235Y-69176525D01*
X29280370Y-69366356D01*
X29352845Y-69545491D01*
X29360511Y-69559834D01*
X29512958Y-69621437D01*
X30046395Y-69088000D01*
X30405605Y-69088000D01*
X30939042Y-69621437D01*
X31091489Y-69559834D01*
X31166909Y-69381919D01*
X31206171Y-69192709D01*
X31207765Y-68999475D01*
X31171630Y-68809644D01*
X31099155Y-68630509D01*
X31091489Y-68616166D01*
X30939042Y-68554563D01*
X30405605Y-69088000D01*
X30046395Y-69088000D01*
X29512958Y-68554563D01*
X29360511Y-68616166D01*
X29285091Y-68794081D01*
X29245829Y-68983291D01*
X29244235Y-69176525D01*
X26593000Y-69176525D01*
X26593000Y-68374958D01*
X29692563Y-68374958D01*
X30226000Y-68908395D01*
X30759437Y-68374958D01*
X30697834Y-68222511D01*
X30519919Y-68147091D01*
X30330709Y-68107829D01*
X30137475Y-68106235D01*
X29947644Y-68142370D01*
X29768509Y-68214845D01*
X29754166Y-68222511D01*
X29692563Y-68374958D01*
X26593000Y-68374958D01*
X26593000Y-66451380D01*
X29245000Y-66451380D01*
X29245000Y-66644620D01*
X29282699Y-66834147D01*
X29356649Y-67012678D01*
X29464007Y-67173351D01*
X29600649Y-67309993D01*
X29761322Y-67417351D01*
X29939853Y-67491301D01*
X30129380Y-67529000D01*
X30322620Y-67529000D01*
X30512147Y-67491301D01*
X30690678Y-67417351D01*
X30851351Y-67309993D01*
X30907344Y-67254000D01*
X31715319Y-67254000D01*
X31750000Y-67257416D01*
X31784681Y-67254000D01*
X31784684Y-67254000D01*
X31888400Y-67243785D01*
X32021482Y-67203415D01*
X32144130Y-67137858D01*
X32251633Y-67049633D01*
X32273746Y-67022688D01*
X32732697Y-66563738D01*
X32759632Y-66541633D01*
X32781738Y-66514697D01*
X32781742Y-66514693D01*
X32847857Y-66434132D01*
X32852090Y-66426213D01*
X32913415Y-66311482D01*
X32953785Y-66178400D01*
X32964000Y-66074684D01*
X32964000Y-66074675D01*
X32967415Y-66040001D01*
X32964000Y-66005327D01*
X32964000Y-65663957D01*
X33014456Y-65602477D01*
X33070049Y-65498470D01*
X33104284Y-65385615D01*
X33115843Y-65268250D01*
X33115843Y-64830750D01*
X33104284Y-64713385D01*
X33070049Y-64600530D01*
X33014456Y-64496523D01*
X32939640Y-64405360D01*
X32848477Y-64330544D01*
X32744470Y-64274951D01*
X32701777Y-64262000D01*
X32744470Y-64249049D01*
X32848477Y-64193456D01*
X32939640Y-64118640D01*
X33014456Y-64027477D01*
X33070049Y-63923470D01*
X33104284Y-63810615D01*
X33115843Y-63693250D01*
X33115843Y-63255750D01*
X33104284Y-63138385D01*
X33070049Y-63025530D01*
X33014456Y-62921523D01*
X32964000Y-62860043D01*
X32964000Y-62628141D01*
X33004265Y-62579078D01*
X40367000Y-62579078D01*
X40367000Y-62732922D01*
X40397013Y-62883809D01*
X40455887Y-63025942D01*
X40541358Y-63153859D01*
X40650141Y-63262642D01*
X40778058Y-63348113D01*
X40920191Y-63406987D01*
X41071078Y-63437000D01*
X41224922Y-63437000D01*
X41375809Y-63406987D01*
X41517942Y-63348113D01*
X41645859Y-63262642D01*
X41754642Y-63153859D01*
X41840113Y-63025942D01*
X41898987Y-62883809D01*
X41929000Y-62732922D01*
X41929000Y-62579078D01*
X41904170Y-62454246D01*
X66852000Y-62454246D01*
X66852000Y-63021754D01*
X66962715Y-63578357D01*
X67179891Y-64102665D01*
X67495181Y-64574530D01*
X67896470Y-64975819D01*
X68368335Y-65291109D01*
X68892643Y-65508285D01*
X69449246Y-65619000D01*
X70016754Y-65619000D01*
X70573357Y-65508285D01*
X71097665Y-65291109D01*
X71569530Y-64975819D01*
X71970819Y-64574530D01*
X72286109Y-64102665D01*
X72503285Y-63578357D01*
X72614000Y-63021754D01*
X72614000Y-62579078D01*
X97537000Y-62579078D01*
X97537000Y-62732922D01*
X97567013Y-62883809D01*
X97625887Y-63025942D01*
X97711358Y-63153859D01*
X97820141Y-63262642D01*
X97948058Y-63348113D01*
X98090191Y-63406987D01*
X98241078Y-63437000D01*
X98394922Y-63437000D01*
X98545809Y-63406987D01*
X98687942Y-63348113D01*
X98815859Y-63262642D01*
X98924642Y-63153859D01*
X99010113Y-63025942D01*
X99068987Y-62883809D01*
X99099000Y-62732922D01*
X99099000Y-62579078D01*
X99068987Y-62428191D01*
X99010113Y-62286058D01*
X98924642Y-62158141D01*
X98815859Y-62049358D01*
X98687942Y-61963887D01*
X98545809Y-61905013D01*
X98394922Y-61875000D01*
X98241078Y-61875000D01*
X98090191Y-61905013D01*
X97948058Y-61963887D01*
X97820141Y-62049358D01*
X97711358Y-62158141D01*
X97625887Y-62286058D01*
X97567013Y-62428191D01*
X97537000Y-62579078D01*
X72614000Y-62579078D01*
X72614000Y-62454246D01*
X72503285Y-61897643D01*
X72286109Y-61373335D01*
X71970819Y-60901470D01*
X71569530Y-60500181D01*
X71097665Y-60184891D01*
X70573357Y-59967715D01*
X70016754Y-59857000D01*
X69449246Y-59857000D01*
X68892643Y-59967715D01*
X68368335Y-60184891D01*
X67896470Y-60500181D01*
X67495181Y-60901470D01*
X67179891Y-61373335D01*
X66962715Y-61897643D01*
X66852000Y-62454246D01*
X41904170Y-62454246D01*
X41898987Y-62428191D01*
X41840113Y-62286058D01*
X41754642Y-62158141D01*
X41645859Y-62049358D01*
X41517942Y-61963887D01*
X41375809Y-61905013D01*
X41224922Y-61875000D01*
X41071078Y-61875000D01*
X40920191Y-61905013D01*
X40778058Y-61963887D01*
X40650141Y-62049358D01*
X40541358Y-62158141D01*
X40455887Y-62286058D01*
X40397013Y-62428191D01*
X40367000Y-62579078D01*
X33004265Y-62579078D01*
X33017616Y-62562810D01*
X33071477Y-62462044D01*
X33104644Y-62352707D01*
X33115843Y-62239000D01*
X33115843Y-61839000D01*
X33104644Y-61725293D01*
X33071477Y-61615956D01*
X33017616Y-61515190D01*
X32945132Y-61426868D01*
X32856810Y-61354384D01*
X32756044Y-61300523D01*
X32646707Y-61267356D01*
X32533000Y-61256157D01*
X31983000Y-61256157D01*
X31869293Y-61267356D01*
X31759956Y-61300523D01*
X31659190Y-61354384D01*
X31570868Y-61426868D01*
X31498384Y-61515190D01*
X31444523Y-61615956D01*
X31411356Y-61725293D01*
X31400157Y-61839000D01*
X31400157Y-62239000D01*
X31411356Y-62352707D01*
X31444523Y-62462044D01*
X31498384Y-62562810D01*
X31552000Y-62628142D01*
X31552001Y-62860042D01*
X31501544Y-62921523D01*
X31445951Y-63025530D01*
X31411716Y-63138385D01*
X31400157Y-63255750D01*
X31400157Y-63693250D01*
X31411716Y-63810615D01*
X31445951Y-63923470D01*
X31501544Y-64027477D01*
X31576360Y-64118640D01*
X31667523Y-64193456D01*
X31771530Y-64249049D01*
X31814223Y-64262000D01*
X31771530Y-64274951D01*
X31667523Y-64330544D01*
X31576360Y-64405360D01*
X31501544Y-64496523D01*
X31445951Y-64600530D01*
X31411716Y-64713385D01*
X31400157Y-64830750D01*
X31400157Y-65268250D01*
X31411716Y-65385615D01*
X31445951Y-65498470D01*
X31501544Y-65602477D01*
X31552000Y-65663958D01*
X31552000Y-65747565D01*
X31457566Y-65842000D01*
X30907344Y-65842000D01*
X30851351Y-65786007D01*
X30690678Y-65678649D01*
X30512147Y-65604699D01*
X30322620Y-65567000D01*
X30129380Y-65567000D01*
X29939853Y-65604699D01*
X29761322Y-65678649D01*
X29600649Y-65786007D01*
X29464007Y-65922649D01*
X29356649Y-66083322D01*
X29282699Y-66261853D01*
X29245000Y-66451380D01*
X26593000Y-66451380D01*
X26593000Y-63911380D01*
X29245000Y-63911380D01*
X29245000Y-64104620D01*
X29282699Y-64294147D01*
X29356649Y-64472678D01*
X29464007Y-64633351D01*
X29600649Y-64769993D01*
X29761322Y-64877351D01*
X29939853Y-64951301D01*
X30129380Y-64989000D01*
X30322620Y-64989000D01*
X30512147Y-64951301D01*
X30690678Y-64877351D01*
X30851351Y-64769993D01*
X30987993Y-64633351D01*
X31095351Y-64472678D01*
X31169301Y-64294147D01*
X31207000Y-64104620D01*
X31207000Y-63911380D01*
X31169301Y-63721853D01*
X31095351Y-63543322D01*
X30987993Y-63382649D01*
X30851351Y-63246007D01*
X30690678Y-63138649D01*
X30512147Y-63064699D01*
X30322620Y-63027000D01*
X30129380Y-63027000D01*
X29939853Y-63064699D01*
X29761322Y-63138649D01*
X29600649Y-63246007D01*
X29464007Y-63382649D01*
X29356649Y-63543322D01*
X29282699Y-63721853D01*
X29245000Y-63911380D01*
X26593000Y-63911380D01*
X26593000Y-61371380D01*
X29245000Y-61371380D01*
X29245000Y-61564620D01*
X29282699Y-61754147D01*
X29356649Y-61932678D01*
X29464007Y-62093351D01*
X29600649Y-62229993D01*
X29761322Y-62337351D01*
X29939853Y-62411301D01*
X30129380Y-62449000D01*
X30322620Y-62449000D01*
X30512147Y-62411301D01*
X30690678Y-62337351D01*
X30851351Y-62229993D01*
X30987993Y-62093351D01*
X31095351Y-61932678D01*
X31169301Y-61754147D01*
X31207000Y-61564620D01*
X31207000Y-61371380D01*
X31169301Y-61181853D01*
X31095351Y-61003322D01*
X30987993Y-60842649D01*
X30934344Y-60789000D01*
X31400157Y-60789000D01*
X31407513Y-60863689D01*
X31429299Y-60935508D01*
X31464678Y-61001696D01*
X31512289Y-61059711D01*
X31570304Y-61107322D01*
X31636492Y-61142701D01*
X31708311Y-61164487D01*
X31783000Y-61171843D01*
X32035750Y-61170000D01*
X32131000Y-61074750D01*
X32131000Y-60516000D01*
X32385000Y-60516000D01*
X32385000Y-61074750D01*
X32480250Y-61170000D01*
X32733000Y-61171843D01*
X32807689Y-61164487D01*
X32879508Y-61142701D01*
X32945696Y-61107322D01*
X33003711Y-61059711D01*
X33051322Y-61001696D01*
X33086701Y-60935508D01*
X33108487Y-60863689D01*
X33115843Y-60789000D01*
X33114000Y-60611250D01*
X33018750Y-60516000D01*
X32385000Y-60516000D01*
X32131000Y-60516000D01*
X31497250Y-60516000D01*
X31402000Y-60611250D01*
X31400157Y-60789000D01*
X30934344Y-60789000D01*
X30851351Y-60706007D01*
X30690678Y-60598649D01*
X30512147Y-60524699D01*
X30322620Y-60487000D01*
X30129380Y-60487000D01*
X29939853Y-60524699D01*
X29761322Y-60598649D01*
X29600649Y-60706007D01*
X29464007Y-60842649D01*
X29356649Y-61003322D01*
X29282699Y-61181853D01*
X29245000Y-61371380D01*
X26593000Y-61371380D01*
X26593000Y-59989000D01*
X31400157Y-59989000D01*
X31402000Y-60166750D01*
X31497250Y-60262000D01*
X32131000Y-60262000D01*
X32131000Y-59703250D01*
X32385000Y-59703250D01*
X32385000Y-60262000D01*
X33018750Y-60262000D01*
X33114000Y-60166750D01*
X33115843Y-59989000D01*
X33108487Y-59914311D01*
X33086701Y-59842492D01*
X33051322Y-59776304D01*
X33003711Y-59718289D01*
X32945696Y-59670678D01*
X32879508Y-59635299D01*
X32807689Y-59613513D01*
X32733000Y-59606157D01*
X32480250Y-59608000D01*
X32385000Y-59703250D01*
X32131000Y-59703250D01*
X32035750Y-59608000D01*
X31783000Y-59606157D01*
X31708311Y-59613513D01*
X31636492Y-59635299D01*
X31570304Y-59670678D01*
X31512289Y-59718289D01*
X31464678Y-59776304D01*
X31429299Y-59842492D01*
X31407513Y-59914311D01*
X31400157Y-59989000D01*
X26593000Y-59989000D01*
X26593000Y-58831380D01*
X29245000Y-58831380D01*
X29245000Y-59024620D01*
X29282699Y-59214147D01*
X29356649Y-59392678D01*
X29464007Y-59553351D01*
X29600649Y-59689993D01*
X29761322Y-59797351D01*
X29939853Y-59871301D01*
X30129380Y-59909000D01*
X30322620Y-59909000D01*
X30512147Y-59871301D01*
X30690678Y-59797351D01*
X30851351Y-59689993D01*
X30987993Y-59553351D01*
X31095351Y-59392678D01*
X31169301Y-59214147D01*
X31207000Y-59024620D01*
X31207000Y-58831380D01*
X31169301Y-58641853D01*
X31095351Y-58463322D01*
X30987993Y-58302649D01*
X30851351Y-58166007D01*
X30690678Y-58058649D01*
X30512147Y-57984699D01*
X30322620Y-57947000D01*
X30129380Y-57947000D01*
X29939853Y-57984699D01*
X29761322Y-58058649D01*
X29600649Y-58166007D01*
X29464007Y-58302649D01*
X29356649Y-58463322D01*
X29282699Y-58641853D01*
X29245000Y-58831380D01*
X26593000Y-58831380D01*
X26593000Y-55788000D01*
X29243157Y-55788000D01*
X29243157Y-56988000D01*
X29250513Y-57062689D01*
X29272299Y-57134508D01*
X29307678Y-57200696D01*
X29355289Y-57258711D01*
X29413304Y-57306322D01*
X29479492Y-57341701D01*
X29551311Y-57363487D01*
X29626000Y-57370843D01*
X30826000Y-57370843D01*
X30900689Y-57363487D01*
X30972508Y-57341701D01*
X31038696Y-57306322D01*
X31096711Y-57258711D01*
X31144322Y-57200696D01*
X31179701Y-57134508D01*
X31191989Y-57094000D01*
X35267566Y-57094000D01*
X37322257Y-59148692D01*
X37344367Y-59175633D01*
X37451870Y-59263858D01*
X37574518Y-59329415D01*
X37707600Y-59369785D01*
X37811316Y-59380000D01*
X37811318Y-59380000D01*
X37845999Y-59383416D01*
X37880680Y-59380000D01*
X41129000Y-59380000D01*
X41129000Y-59512922D01*
X41159013Y-59663809D01*
X41217887Y-59805942D01*
X41303358Y-59933859D01*
X41412141Y-60042642D01*
X41540058Y-60128113D01*
X41682191Y-60186987D01*
X41833078Y-60217000D01*
X41986922Y-60217000D01*
X42137809Y-60186987D01*
X42279942Y-60128113D01*
X42407859Y-60042642D01*
X42516642Y-59933859D01*
X42602113Y-59805942D01*
X42660987Y-59663809D01*
X42691000Y-59512922D01*
X42691000Y-59380000D01*
X98005566Y-59380000D01*
X98322899Y-59697333D01*
X98367887Y-59805942D01*
X98453358Y-59933859D01*
X98562141Y-60042642D01*
X98690058Y-60128113D01*
X98832191Y-60186987D01*
X98983078Y-60217000D01*
X99136922Y-60217000D01*
X99287809Y-60186987D01*
X99429942Y-60128113D01*
X99557859Y-60042642D01*
X99666642Y-59933859D01*
X99752113Y-59805942D01*
X99810987Y-59663809D01*
X99841000Y-59512922D01*
X99841000Y-59359078D01*
X99810987Y-59208191D01*
X99752113Y-59066058D01*
X99666642Y-58938141D01*
X99557859Y-58829358D01*
X99429942Y-58743887D01*
X99321333Y-58698899D01*
X98821746Y-58199312D01*
X98799633Y-58172367D01*
X98692130Y-58084142D01*
X98569482Y-58018585D01*
X98436400Y-57978215D01*
X98332684Y-57968000D01*
X98332681Y-57968000D01*
X98298000Y-57964584D01*
X98263319Y-57968000D01*
X41690681Y-57968000D01*
X41656000Y-57964584D01*
X41621319Y-57968000D01*
X38138435Y-57968000D01*
X36083746Y-55913312D01*
X36061633Y-55886367D01*
X35954130Y-55798142D01*
X35831482Y-55732585D01*
X35698400Y-55692215D01*
X35594684Y-55682000D01*
X35594681Y-55682000D01*
X35560000Y-55678584D01*
X35525319Y-55682000D01*
X31191989Y-55682000D01*
X31179701Y-55641492D01*
X31144322Y-55575304D01*
X31096711Y-55517289D01*
X31038696Y-55469678D01*
X30972508Y-55434299D01*
X30900689Y-55412513D01*
X30826000Y-55405157D01*
X29626000Y-55405157D01*
X29551311Y-55412513D01*
X29479492Y-55434299D01*
X29413304Y-55469678D01*
X29355289Y-55517289D01*
X29307678Y-55575304D01*
X29272299Y-55641492D01*
X29250513Y-55713311D01*
X29243157Y-55788000D01*
X26593000Y-55788000D01*
X26593000Y-53009000D01*
X105731000Y-53009000D01*
X105731001Y-72467000D01*
G37*
G04 #@! TD.AperFunction*
M02*
