%FSLAX45Y45*%
G04 Gerber Fmt 4.5, Leading zero omitted, Abs format (unit mm)*
G04 Created by KiCad (PCBNEW 5.1.10-88a1d61d58~88~ubuntu18.04.1) date 2021-09-30 10:17:41*
%MOMM*%
%LPD*%
G01*
G04 APERTURE LIST*
%TA.AperFunction,Profile*%
%ADD10C,0.100000*%
%TD*%
%ADD11C,0.200000*%
%ADD12C,0.300000*%
G04 APERTURE END LIST*
D10*
X10616200Y-5257800D02*
X10616200Y-7289800D01*
X2616200Y-5257800D02*
X10616200Y-5257800D01*
X2616200Y-7289800D02*
X2616200Y-5257800D01*
X10616200Y-7289800D02*
X2616200Y-7289800D01*
D11*
X4171000Y-5923600D02*
X4211000Y-5963600D01*
X4211000Y-5923600D02*
X4171000Y-5963600D01*
X9886000Y-5923600D02*
X9926000Y-5963600D01*
X9926000Y-5923600D02*
X9886000Y-5963600D01*
X3733400Y-6121400D02*
G75*
G03*
X3733400Y-6121400I-25000J0D01*
G01*
X9448400Y-6121400D02*
G75*
G03*
X9448400Y-6121400I-25000J0D01*
G01*
X3022600Y-5598800D02*
X3022600Y-5678800D01*
X2982600Y-5638800D02*
X3062600Y-5638800D01*
X3022600Y-5852800D02*
X3022600Y-5932800D01*
X2982600Y-5892800D02*
X3062600Y-5892800D01*
X3022600Y-6106800D02*
X3022600Y-6186800D01*
X2982600Y-6146800D02*
X3062600Y-6146800D01*
X3022600Y-6360800D02*
X3022600Y-6440800D01*
X2982600Y-6400800D02*
X3062600Y-6400800D01*
X3022600Y-6614800D02*
X3022600Y-6694800D01*
X2982600Y-6654800D02*
X3062600Y-6654800D01*
X3022600Y-6868800D02*
X3022600Y-6948800D01*
X2982600Y-6908800D02*
X3062600Y-6908800D01*
X7079367Y-6379867D02*
X7079367Y-6167733D01*
X6867233Y-6167733D01*
X6867233Y-6379867D01*
X7079367Y-6379867D01*
D12*
X2897628Y-7760514D02*
X2897628Y-7460514D01*
X2969057Y-7460514D01*
X3011914Y-7474800D01*
X3040486Y-7503371D01*
X3054771Y-7531943D01*
X3069057Y-7589086D01*
X3069057Y-7631943D01*
X3054771Y-7689086D01*
X3040486Y-7717657D01*
X3011914Y-7746229D01*
X2969057Y-7760514D01*
X2897628Y-7760514D01*
X3197628Y-7760514D02*
X3197628Y-7560514D01*
X3197628Y-7617657D02*
X3211914Y-7589086D01*
X3226200Y-7574800D01*
X3254771Y-7560514D01*
X3283343Y-7560514D01*
X3383343Y-7760514D02*
X3383343Y-7560514D01*
X3383343Y-7460514D02*
X3369057Y-7474800D01*
X3383343Y-7489086D01*
X3397628Y-7474800D01*
X3383343Y-7460514D01*
X3383343Y-7489086D01*
X3569057Y-7760514D02*
X3540486Y-7746229D01*
X3526200Y-7717657D01*
X3526200Y-7460514D01*
X3726200Y-7760514D02*
X3697628Y-7746229D01*
X3683343Y-7717657D01*
X3683343Y-7460514D01*
X4069057Y-7760514D02*
X4069057Y-7460514D01*
X4169057Y-7674800D01*
X4269057Y-7460514D01*
X4269057Y-7760514D01*
X4540486Y-7760514D02*
X4540486Y-7603371D01*
X4526200Y-7574800D01*
X4497628Y-7560514D01*
X4440486Y-7560514D01*
X4411914Y-7574800D01*
X4540486Y-7746229D02*
X4511914Y-7760514D01*
X4440486Y-7760514D01*
X4411914Y-7746229D01*
X4397628Y-7717657D01*
X4397628Y-7689086D01*
X4411914Y-7660514D01*
X4440486Y-7646229D01*
X4511914Y-7646229D01*
X4540486Y-7631943D01*
X4683343Y-7560514D02*
X4683343Y-7860514D01*
X4683343Y-7574800D02*
X4711914Y-7560514D01*
X4769057Y-7560514D01*
X4797628Y-7574800D01*
X4811914Y-7589086D01*
X4826200Y-7617657D01*
X4826200Y-7703371D01*
X4811914Y-7731943D01*
X4797628Y-7746229D01*
X4769057Y-7760514D01*
X4711914Y-7760514D01*
X4683343Y-7746229D01*
X4954771Y-7731943D02*
X4969057Y-7746229D01*
X4954771Y-7760514D01*
X4940486Y-7746229D01*
X4954771Y-7731943D01*
X4954771Y-7760514D01*
X4954771Y-7574800D02*
X4969057Y-7589086D01*
X4954771Y-7603371D01*
X4940486Y-7589086D01*
X4954771Y-7574800D01*
X4954771Y-7603371D01*
X2571200Y-8234800D02*
X2611200Y-8274800D01*
X2611200Y-8234800D02*
X2571200Y-8274800D01*
X2954771Y-8090514D02*
X2983343Y-8090514D01*
X3011914Y-8104800D01*
X3026200Y-8119086D01*
X3040486Y-8147657D01*
X3054771Y-8204800D01*
X3054771Y-8276229D01*
X3040486Y-8333371D01*
X3026200Y-8361943D01*
X3011914Y-8376229D01*
X2983343Y-8390514D01*
X2954771Y-8390514D01*
X2926200Y-8376229D01*
X2911914Y-8361943D01*
X2897628Y-8333371D01*
X2883343Y-8276229D01*
X2883343Y-8204800D01*
X2897628Y-8147657D01*
X2911914Y-8119086D01*
X2926200Y-8104800D01*
X2954771Y-8090514D01*
X3183343Y-8361943D02*
X3197628Y-8376229D01*
X3183343Y-8390514D01*
X3169057Y-8376229D01*
X3183343Y-8361943D01*
X3183343Y-8390514D01*
X3454771Y-8190514D02*
X3454771Y-8390514D01*
X3383343Y-8076229D02*
X3311914Y-8290514D01*
X3497628Y-8290514D01*
X3669057Y-8090514D02*
X3697628Y-8090514D01*
X3726200Y-8104800D01*
X3740486Y-8119086D01*
X3754771Y-8147657D01*
X3769057Y-8204800D01*
X3769057Y-8276229D01*
X3754771Y-8333371D01*
X3740486Y-8361943D01*
X3726200Y-8376229D01*
X3697628Y-8390514D01*
X3669057Y-8390514D01*
X3640486Y-8376229D01*
X3626200Y-8361943D01*
X3611914Y-8333371D01*
X3597628Y-8276229D01*
X3597628Y-8204800D01*
X3611914Y-8147657D01*
X3626200Y-8119086D01*
X3640486Y-8104800D01*
X3669057Y-8090514D01*
X3954771Y-8090514D02*
X3983343Y-8090514D01*
X4011914Y-8104800D01*
X4026200Y-8119086D01*
X4040486Y-8147657D01*
X4054771Y-8204800D01*
X4054771Y-8276229D01*
X4040486Y-8333371D01*
X4026200Y-8361943D01*
X4011914Y-8376229D01*
X3983343Y-8390514D01*
X3954771Y-8390514D01*
X3926200Y-8376229D01*
X3911914Y-8361943D01*
X3897628Y-8333371D01*
X3883343Y-8276229D01*
X3883343Y-8204800D01*
X3897628Y-8147657D01*
X3911914Y-8119086D01*
X3926200Y-8104800D01*
X3954771Y-8090514D01*
X4183343Y-8390514D02*
X4183343Y-8190514D01*
X4183343Y-8219086D02*
X4197628Y-8204800D01*
X4226200Y-8190514D01*
X4269057Y-8190514D01*
X4297628Y-8204800D01*
X4311914Y-8233371D01*
X4311914Y-8390514D01*
X4311914Y-8233371D02*
X4326200Y-8204800D01*
X4354771Y-8190514D01*
X4397628Y-8190514D01*
X4426200Y-8204800D01*
X4440486Y-8233371D01*
X4440486Y-8390514D01*
X4583343Y-8390514D02*
X4583343Y-8190514D01*
X4583343Y-8219086D02*
X4597628Y-8204800D01*
X4626200Y-8190514D01*
X4669057Y-8190514D01*
X4697628Y-8204800D01*
X4711914Y-8233371D01*
X4711914Y-8390514D01*
X4711914Y-8233371D02*
X4726200Y-8204800D01*
X4754771Y-8190514D01*
X4797628Y-8190514D01*
X4826200Y-8204800D01*
X4840486Y-8233371D01*
X4840486Y-8390514D01*
X5426200Y-8076229D02*
X5169057Y-8461943D01*
X5811914Y-8090514D02*
X5840486Y-8090514D01*
X5869057Y-8104800D01*
X5883343Y-8119086D01*
X5897628Y-8147657D01*
X5911914Y-8204800D01*
X5911914Y-8276229D01*
X5897628Y-8333371D01*
X5883343Y-8361943D01*
X5869057Y-8376229D01*
X5840486Y-8390514D01*
X5811914Y-8390514D01*
X5783343Y-8376229D01*
X5769057Y-8361943D01*
X5754771Y-8333371D01*
X5740486Y-8276229D01*
X5740486Y-8204800D01*
X5754771Y-8147657D01*
X5769057Y-8119086D01*
X5783343Y-8104800D01*
X5811914Y-8090514D01*
X6040486Y-8361943D02*
X6054771Y-8376229D01*
X6040486Y-8390514D01*
X6026200Y-8376229D01*
X6040486Y-8361943D01*
X6040486Y-8390514D01*
X6240486Y-8090514D02*
X6269057Y-8090514D01*
X6297628Y-8104800D01*
X6311914Y-8119086D01*
X6326200Y-8147657D01*
X6340486Y-8204800D01*
X6340486Y-8276229D01*
X6326200Y-8333371D01*
X6311914Y-8361943D01*
X6297628Y-8376229D01*
X6269057Y-8390514D01*
X6240486Y-8390514D01*
X6211914Y-8376229D01*
X6197628Y-8361943D01*
X6183343Y-8333371D01*
X6169057Y-8276229D01*
X6169057Y-8204800D01*
X6183343Y-8147657D01*
X6197628Y-8119086D01*
X6211914Y-8104800D01*
X6240486Y-8090514D01*
X6626200Y-8390514D02*
X6454771Y-8390514D01*
X6540486Y-8390514D02*
X6540486Y-8090514D01*
X6511914Y-8133371D01*
X6483343Y-8161943D01*
X6454771Y-8176229D01*
X6897628Y-8090514D02*
X6754771Y-8090514D01*
X6740486Y-8233371D01*
X6754771Y-8219086D01*
X6783343Y-8204800D01*
X6854771Y-8204800D01*
X6883343Y-8219086D01*
X6897628Y-8233371D01*
X6911914Y-8261943D01*
X6911914Y-8333371D01*
X6897628Y-8361943D01*
X6883343Y-8376229D01*
X6854771Y-8390514D01*
X6783343Y-8390514D01*
X6754771Y-8376229D01*
X6740486Y-8361943D01*
X7011914Y-8090514D02*
X7211914Y-8090514D01*
X7083343Y-8390514D01*
X7311914Y-8090514D02*
X7311914Y-8147657D01*
X7426200Y-8090514D02*
X7426200Y-8147657D01*
X7869057Y-8504800D02*
X7854771Y-8490514D01*
X7826200Y-8447657D01*
X7811914Y-8419086D01*
X7797628Y-8376229D01*
X7783343Y-8304800D01*
X7783343Y-8247657D01*
X7797628Y-8176229D01*
X7811914Y-8133371D01*
X7826200Y-8104800D01*
X7854771Y-8061943D01*
X7869057Y-8047657D01*
X7969057Y-8119086D02*
X7983343Y-8104800D01*
X8011914Y-8090514D01*
X8083343Y-8090514D01*
X8111914Y-8104800D01*
X8126200Y-8119086D01*
X8140486Y-8147657D01*
X8140486Y-8176229D01*
X8126200Y-8219086D01*
X7954771Y-8390514D01*
X8140486Y-8390514D01*
X8497628Y-8390514D02*
X8497628Y-8090514D01*
X8626200Y-8390514D02*
X8626200Y-8233371D01*
X8611914Y-8204800D01*
X8583343Y-8190514D01*
X8540486Y-8190514D01*
X8511914Y-8204800D01*
X8497628Y-8219086D01*
X8811914Y-8390514D02*
X8783343Y-8376229D01*
X8769057Y-8361943D01*
X8754771Y-8333371D01*
X8754771Y-8247657D01*
X8769057Y-8219086D01*
X8783343Y-8204800D01*
X8811914Y-8190514D01*
X8854771Y-8190514D01*
X8883343Y-8204800D01*
X8897628Y-8219086D01*
X8911914Y-8247657D01*
X8911914Y-8333371D01*
X8897628Y-8361943D01*
X8883343Y-8376229D01*
X8854771Y-8390514D01*
X8811914Y-8390514D01*
X9083343Y-8390514D02*
X9054771Y-8376229D01*
X9040486Y-8347657D01*
X9040486Y-8090514D01*
X9311914Y-8376229D02*
X9283343Y-8390514D01*
X9226200Y-8390514D01*
X9197628Y-8376229D01*
X9183343Y-8347657D01*
X9183343Y-8233371D01*
X9197628Y-8204800D01*
X9226200Y-8190514D01*
X9283343Y-8190514D01*
X9311914Y-8204800D01*
X9326200Y-8233371D01*
X9326200Y-8261943D01*
X9183343Y-8290514D01*
X9440486Y-8376229D02*
X9469057Y-8390514D01*
X9526200Y-8390514D01*
X9554771Y-8376229D01*
X9569057Y-8347657D01*
X9569057Y-8333371D01*
X9554771Y-8304800D01*
X9526200Y-8290514D01*
X9483343Y-8290514D01*
X9454771Y-8276229D01*
X9440486Y-8247657D01*
X9440486Y-8233371D01*
X9454771Y-8204800D01*
X9483343Y-8190514D01*
X9526200Y-8190514D01*
X9554771Y-8204800D01*
X9669057Y-8504800D02*
X9683343Y-8490514D01*
X9711914Y-8447657D01*
X9726200Y-8419086D01*
X9740486Y-8376229D01*
X9754771Y-8304800D01*
X9754771Y-8247657D01*
X9740486Y-8176229D01*
X9726200Y-8133371D01*
X9711914Y-8104800D01*
X9683343Y-8061943D01*
X9669057Y-8047657D01*
X2611200Y-8650800D02*
G75*
G03*
X2611200Y-8650800I-25000J0D01*
G01*
X2954771Y-8486514D02*
X2983343Y-8486514D01*
X3011914Y-8500800D01*
X3026200Y-8515086D01*
X3040486Y-8543657D01*
X3054771Y-8600800D01*
X3054771Y-8672229D01*
X3040486Y-8729372D01*
X3026200Y-8757943D01*
X3011914Y-8772229D01*
X2983343Y-8786514D01*
X2954771Y-8786514D01*
X2926200Y-8772229D01*
X2911914Y-8757943D01*
X2897628Y-8729372D01*
X2883343Y-8672229D01*
X2883343Y-8600800D01*
X2897628Y-8543657D01*
X2911914Y-8515086D01*
X2926200Y-8500800D01*
X2954771Y-8486514D01*
X3183343Y-8757943D02*
X3197628Y-8772229D01*
X3183343Y-8786514D01*
X3169057Y-8772229D01*
X3183343Y-8757943D01*
X3183343Y-8786514D01*
X3469057Y-8486514D02*
X3326200Y-8486514D01*
X3311914Y-8629372D01*
X3326200Y-8615086D01*
X3354771Y-8600800D01*
X3426200Y-8600800D01*
X3454771Y-8615086D01*
X3469057Y-8629372D01*
X3483343Y-8657943D01*
X3483343Y-8729372D01*
X3469057Y-8757943D01*
X3454771Y-8772229D01*
X3426200Y-8786514D01*
X3354771Y-8786514D01*
X3326200Y-8772229D01*
X3311914Y-8757943D01*
X3669057Y-8486514D02*
X3697628Y-8486514D01*
X3726200Y-8500800D01*
X3740486Y-8515086D01*
X3754771Y-8543657D01*
X3769057Y-8600800D01*
X3769057Y-8672229D01*
X3754771Y-8729372D01*
X3740486Y-8757943D01*
X3726200Y-8772229D01*
X3697628Y-8786514D01*
X3669057Y-8786514D01*
X3640486Y-8772229D01*
X3626200Y-8757943D01*
X3611914Y-8729372D01*
X3597628Y-8672229D01*
X3597628Y-8600800D01*
X3611914Y-8543657D01*
X3626200Y-8515086D01*
X3640486Y-8500800D01*
X3669057Y-8486514D01*
X3954771Y-8486514D02*
X3983343Y-8486514D01*
X4011914Y-8500800D01*
X4026200Y-8515086D01*
X4040486Y-8543657D01*
X4054771Y-8600800D01*
X4054771Y-8672229D01*
X4040486Y-8729372D01*
X4026200Y-8757943D01*
X4011914Y-8772229D01*
X3983343Y-8786514D01*
X3954771Y-8786514D01*
X3926200Y-8772229D01*
X3911914Y-8757943D01*
X3897628Y-8729372D01*
X3883343Y-8672229D01*
X3883343Y-8600800D01*
X3897628Y-8543657D01*
X3911914Y-8515086D01*
X3926200Y-8500800D01*
X3954771Y-8486514D01*
X4183343Y-8786514D02*
X4183343Y-8586514D01*
X4183343Y-8615086D02*
X4197628Y-8600800D01*
X4226200Y-8586514D01*
X4269057Y-8586514D01*
X4297628Y-8600800D01*
X4311914Y-8629372D01*
X4311914Y-8786514D01*
X4311914Y-8629372D02*
X4326200Y-8600800D01*
X4354771Y-8586514D01*
X4397628Y-8586514D01*
X4426200Y-8600800D01*
X4440486Y-8629372D01*
X4440486Y-8786514D01*
X4583343Y-8786514D02*
X4583343Y-8586514D01*
X4583343Y-8615086D02*
X4597628Y-8600800D01*
X4626200Y-8586514D01*
X4669057Y-8586514D01*
X4697628Y-8600800D01*
X4711914Y-8629372D01*
X4711914Y-8786514D01*
X4711914Y-8629372D02*
X4726200Y-8600800D01*
X4754771Y-8586514D01*
X4797628Y-8586514D01*
X4826200Y-8600800D01*
X4840486Y-8629372D01*
X4840486Y-8786514D01*
X5426200Y-8472229D02*
X5169057Y-8857943D01*
X5811914Y-8486514D02*
X5840486Y-8486514D01*
X5869057Y-8500800D01*
X5883343Y-8515086D01*
X5897628Y-8543657D01*
X5911914Y-8600800D01*
X5911914Y-8672229D01*
X5897628Y-8729372D01*
X5883343Y-8757943D01*
X5869057Y-8772229D01*
X5840486Y-8786514D01*
X5811914Y-8786514D01*
X5783343Y-8772229D01*
X5769057Y-8757943D01*
X5754771Y-8729372D01*
X5740486Y-8672229D01*
X5740486Y-8600800D01*
X5754771Y-8543657D01*
X5769057Y-8515086D01*
X5783343Y-8500800D01*
X5811914Y-8486514D01*
X6040486Y-8757943D02*
X6054771Y-8772229D01*
X6040486Y-8786514D01*
X6026200Y-8772229D01*
X6040486Y-8757943D01*
X6040486Y-8786514D01*
X6240486Y-8486514D02*
X6269057Y-8486514D01*
X6297628Y-8500800D01*
X6311914Y-8515086D01*
X6326200Y-8543657D01*
X6340486Y-8600800D01*
X6340486Y-8672229D01*
X6326200Y-8729372D01*
X6311914Y-8757943D01*
X6297628Y-8772229D01*
X6269057Y-8786514D01*
X6240486Y-8786514D01*
X6211914Y-8772229D01*
X6197628Y-8757943D01*
X6183343Y-8729372D01*
X6169057Y-8672229D01*
X6169057Y-8600800D01*
X6183343Y-8543657D01*
X6197628Y-8515086D01*
X6211914Y-8500800D01*
X6240486Y-8486514D01*
X6626200Y-8786514D02*
X6454771Y-8786514D01*
X6540486Y-8786514D02*
X6540486Y-8486514D01*
X6511914Y-8529372D01*
X6483343Y-8557943D01*
X6454771Y-8572229D01*
X6769057Y-8786514D02*
X6826200Y-8786514D01*
X6854771Y-8772229D01*
X6869057Y-8757943D01*
X6897628Y-8715086D01*
X6911914Y-8657943D01*
X6911914Y-8543657D01*
X6897628Y-8515086D01*
X6883343Y-8500800D01*
X6854771Y-8486514D01*
X6797628Y-8486514D01*
X6769057Y-8500800D01*
X6754771Y-8515086D01*
X6740486Y-8543657D01*
X6740486Y-8615086D01*
X6754771Y-8643657D01*
X6769057Y-8657943D01*
X6797628Y-8672229D01*
X6854771Y-8672229D01*
X6883343Y-8657943D01*
X6897628Y-8643657D01*
X6911914Y-8615086D01*
X7011914Y-8486514D02*
X7211914Y-8486514D01*
X7083343Y-8786514D01*
X7311914Y-8486514D02*
X7311914Y-8543657D01*
X7426200Y-8486514D02*
X7426200Y-8543657D01*
X7869057Y-8900800D02*
X7854771Y-8886514D01*
X7826200Y-8843657D01*
X7811914Y-8815086D01*
X7797628Y-8772229D01*
X7783343Y-8700800D01*
X7783343Y-8643657D01*
X7797628Y-8572229D01*
X7811914Y-8529372D01*
X7826200Y-8500800D01*
X7854771Y-8457943D01*
X7869057Y-8443657D01*
X7969057Y-8515086D02*
X7983343Y-8500800D01*
X8011914Y-8486514D01*
X8083343Y-8486514D01*
X8111914Y-8500800D01*
X8126200Y-8515086D01*
X8140486Y-8543657D01*
X8140486Y-8572229D01*
X8126200Y-8615086D01*
X7954771Y-8786514D01*
X8140486Y-8786514D01*
X8497628Y-8786514D02*
X8497628Y-8486514D01*
X8626200Y-8786514D02*
X8626200Y-8629372D01*
X8611914Y-8600800D01*
X8583343Y-8586514D01*
X8540486Y-8586514D01*
X8511914Y-8600800D01*
X8497628Y-8615086D01*
X8811914Y-8786514D02*
X8783343Y-8772229D01*
X8769057Y-8757943D01*
X8754771Y-8729372D01*
X8754771Y-8643657D01*
X8769057Y-8615086D01*
X8783343Y-8600800D01*
X8811914Y-8586514D01*
X8854771Y-8586514D01*
X8883343Y-8600800D01*
X8897628Y-8615086D01*
X8911914Y-8643657D01*
X8911914Y-8729372D01*
X8897628Y-8757943D01*
X8883343Y-8772229D01*
X8854771Y-8786514D01*
X8811914Y-8786514D01*
X9083343Y-8786514D02*
X9054771Y-8772229D01*
X9040486Y-8743657D01*
X9040486Y-8486514D01*
X9311914Y-8772229D02*
X9283343Y-8786514D01*
X9226200Y-8786514D01*
X9197628Y-8772229D01*
X9183343Y-8743657D01*
X9183343Y-8629372D01*
X9197628Y-8600800D01*
X9226200Y-8586514D01*
X9283343Y-8586514D01*
X9311914Y-8600800D01*
X9326200Y-8629372D01*
X9326200Y-8657943D01*
X9183343Y-8686514D01*
X9440486Y-8772229D02*
X9469057Y-8786514D01*
X9526200Y-8786514D01*
X9554771Y-8772229D01*
X9569057Y-8743657D01*
X9569057Y-8729372D01*
X9554771Y-8700800D01*
X9526200Y-8686514D01*
X9483343Y-8686514D01*
X9454771Y-8672229D01*
X9440486Y-8643657D01*
X9440486Y-8629372D01*
X9454771Y-8600800D01*
X9483343Y-8586514D01*
X9526200Y-8586514D01*
X9554771Y-8600800D01*
X9669057Y-8900800D02*
X9683343Y-8886514D01*
X9711914Y-8843657D01*
X9726200Y-8815086D01*
X9740486Y-8772229D01*
X9754771Y-8700800D01*
X9754771Y-8643657D01*
X9740486Y-8572229D01*
X9726200Y-8529372D01*
X9711914Y-8500800D01*
X9683343Y-8457943D01*
X9669057Y-8443657D01*
X2571200Y-9006800D02*
X2571200Y-9086800D01*
X2531200Y-9046800D02*
X2611200Y-9046800D01*
X2954771Y-8882514D02*
X2983343Y-8882514D01*
X3011914Y-8896800D01*
X3026200Y-8911086D01*
X3040486Y-8939657D01*
X3054771Y-8996800D01*
X3054771Y-9068229D01*
X3040486Y-9125372D01*
X3026200Y-9153943D01*
X3011914Y-9168229D01*
X2983343Y-9182514D01*
X2954771Y-9182514D01*
X2926200Y-9168229D01*
X2911914Y-9153943D01*
X2897628Y-9125372D01*
X2883343Y-9068229D01*
X2883343Y-8996800D01*
X2897628Y-8939657D01*
X2911914Y-8911086D01*
X2926200Y-8896800D01*
X2954771Y-8882514D01*
X3183343Y-9153943D02*
X3197628Y-9168229D01*
X3183343Y-9182514D01*
X3169057Y-9168229D01*
X3183343Y-9153943D01*
X3183343Y-9182514D01*
X3369057Y-9011086D02*
X3340486Y-8996800D01*
X3326200Y-8982514D01*
X3311914Y-8953943D01*
X3311914Y-8939657D01*
X3326200Y-8911086D01*
X3340486Y-8896800D01*
X3369057Y-8882514D01*
X3426200Y-8882514D01*
X3454771Y-8896800D01*
X3469057Y-8911086D01*
X3483343Y-8939657D01*
X3483343Y-8953943D01*
X3469057Y-8982514D01*
X3454771Y-8996800D01*
X3426200Y-9011086D01*
X3369057Y-9011086D01*
X3340486Y-9025372D01*
X3326200Y-9039657D01*
X3311914Y-9068229D01*
X3311914Y-9125372D01*
X3326200Y-9153943D01*
X3340486Y-9168229D01*
X3369057Y-9182514D01*
X3426200Y-9182514D01*
X3454771Y-9168229D01*
X3469057Y-9153943D01*
X3483343Y-9125372D01*
X3483343Y-9068229D01*
X3469057Y-9039657D01*
X3454771Y-9025372D01*
X3426200Y-9011086D01*
X3669057Y-8882514D02*
X3697628Y-8882514D01*
X3726200Y-8896800D01*
X3740486Y-8911086D01*
X3754771Y-8939657D01*
X3769057Y-8996800D01*
X3769057Y-9068229D01*
X3754771Y-9125372D01*
X3740486Y-9153943D01*
X3726200Y-9168229D01*
X3697628Y-9182514D01*
X3669057Y-9182514D01*
X3640486Y-9168229D01*
X3626200Y-9153943D01*
X3611914Y-9125372D01*
X3597628Y-9068229D01*
X3597628Y-8996800D01*
X3611914Y-8939657D01*
X3626200Y-8911086D01*
X3640486Y-8896800D01*
X3669057Y-8882514D01*
X3954771Y-8882514D02*
X3983343Y-8882514D01*
X4011914Y-8896800D01*
X4026200Y-8911086D01*
X4040486Y-8939657D01*
X4054771Y-8996800D01*
X4054771Y-9068229D01*
X4040486Y-9125372D01*
X4026200Y-9153943D01*
X4011914Y-9168229D01*
X3983343Y-9182514D01*
X3954771Y-9182514D01*
X3926200Y-9168229D01*
X3911914Y-9153943D01*
X3897628Y-9125372D01*
X3883343Y-9068229D01*
X3883343Y-8996800D01*
X3897628Y-8939657D01*
X3911914Y-8911086D01*
X3926200Y-8896800D01*
X3954771Y-8882514D01*
X4183343Y-9182514D02*
X4183343Y-8982514D01*
X4183343Y-9011086D02*
X4197628Y-8996800D01*
X4226200Y-8982514D01*
X4269057Y-8982514D01*
X4297628Y-8996800D01*
X4311914Y-9025372D01*
X4311914Y-9182514D01*
X4311914Y-9025372D02*
X4326200Y-8996800D01*
X4354771Y-8982514D01*
X4397628Y-8982514D01*
X4426200Y-8996800D01*
X4440486Y-9025372D01*
X4440486Y-9182514D01*
X4583343Y-9182514D02*
X4583343Y-8982514D01*
X4583343Y-9011086D02*
X4597628Y-8996800D01*
X4626200Y-8982514D01*
X4669057Y-8982514D01*
X4697628Y-8996800D01*
X4711914Y-9025372D01*
X4711914Y-9182514D01*
X4711914Y-9025372D02*
X4726200Y-8996800D01*
X4754771Y-8982514D01*
X4797628Y-8982514D01*
X4826200Y-8996800D01*
X4840486Y-9025372D01*
X4840486Y-9182514D01*
X5426200Y-8868229D02*
X5169057Y-9253943D01*
X5811914Y-8882514D02*
X5840486Y-8882514D01*
X5869057Y-8896800D01*
X5883343Y-8911086D01*
X5897628Y-8939657D01*
X5911914Y-8996800D01*
X5911914Y-9068229D01*
X5897628Y-9125372D01*
X5883343Y-9153943D01*
X5869057Y-9168229D01*
X5840486Y-9182514D01*
X5811914Y-9182514D01*
X5783343Y-9168229D01*
X5769057Y-9153943D01*
X5754771Y-9125372D01*
X5740486Y-9068229D01*
X5740486Y-8996800D01*
X5754771Y-8939657D01*
X5769057Y-8911086D01*
X5783343Y-8896800D01*
X5811914Y-8882514D01*
X6040486Y-9153943D02*
X6054771Y-9168229D01*
X6040486Y-9182514D01*
X6026200Y-9168229D01*
X6040486Y-9153943D01*
X6040486Y-9182514D01*
X6240486Y-8882514D02*
X6269057Y-8882514D01*
X6297628Y-8896800D01*
X6311914Y-8911086D01*
X6326200Y-8939657D01*
X6340486Y-8996800D01*
X6340486Y-9068229D01*
X6326200Y-9125372D01*
X6311914Y-9153943D01*
X6297628Y-9168229D01*
X6269057Y-9182514D01*
X6240486Y-9182514D01*
X6211914Y-9168229D01*
X6197628Y-9153943D01*
X6183343Y-9125372D01*
X6169057Y-9068229D01*
X6169057Y-8996800D01*
X6183343Y-8939657D01*
X6197628Y-8911086D01*
X6211914Y-8896800D01*
X6240486Y-8882514D01*
X6440486Y-8882514D02*
X6626200Y-8882514D01*
X6526200Y-8996800D01*
X6569057Y-8996800D01*
X6597628Y-9011086D01*
X6611914Y-9025372D01*
X6626200Y-9053943D01*
X6626200Y-9125372D01*
X6611914Y-9153943D01*
X6597628Y-9168229D01*
X6569057Y-9182514D01*
X6483343Y-9182514D01*
X6454771Y-9168229D01*
X6440486Y-9153943D01*
X6911914Y-9182514D02*
X6740486Y-9182514D01*
X6826200Y-9182514D02*
X6826200Y-8882514D01*
X6797628Y-8925372D01*
X6769057Y-8953943D01*
X6740486Y-8968229D01*
X7183343Y-8882514D02*
X7040486Y-8882514D01*
X7026200Y-9025372D01*
X7040486Y-9011086D01*
X7069057Y-8996800D01*
X7140486Y-8996800D01*
X7169057Y-9011086D01*
X7183343Y-9025372D01*
X7197628Y-9053943D01*
X7197628Y-9125372D01*
X7183343Y-9153943D01*
X7169057Y-9168229D01*
X7140486Y-9182514D01*
X7069057Y-9182514D01*
X7040486Y-9168229D01*
X7026200Y-9153943D01*
X7311914Y-8882514D02*
X7311914Y-8939657D01*
X7426200Y-8882514D02*
X7426200Y-8939657D01*
X7869057Y-9296800D02*
X7854771Y-9282514D01*
X7826200Y-9239657D01*
X7811914Y-9211086D01*
X7797628Y-9168229D01*
X7783343Y-9096800D01*
X7783343Y-9039657D01*
X7797628Y-8968229D01*
X7811914Y-8925372D01*
X7826200Y-8896800D01*
X7854771Y-8853943D01*
X7869057Y-8839657D01*
X8111914Y-8882514D02*
X8054771Y-8882514D01*
X8026200Y-8896800D01*
X8011914Y-8911086D01*
X7983343Y-8953943D01*
X7969057Y-9011086D01*
X7969057Y-9125372D01*
X7983343Y-9153943D01*
X7997628Y-9168229D01*
X8026200Y-9182514D01*
X8083343Y-9182514D01*
X8111914Y-9168229D01*
X8126200Y-9153943D01*
X8140486Y-9125372D01*
X8140486Y-9053943D01*
X8126200Y-9025372D01*
X8111914Y-9011086D01*
X8083343Y-8996800D01*
X8026200Y-8996800D01*
X7997628Y-9011086D01*
X7983343Y-9025372D01*
X7969057Y-9053943D01*
X8497628Y-9182514D02*
X8497628Y-8882514D01*
X8626200Y-9182514D02*
X8626200Y-9025372D01*
X8611914Y-8996800D01*
X8583343Y-8982514D01*
X8540486Y-8982514D01*
X8511914Y-8996800D01*
X8497628Y-9011086D01*
X8811914Y-9182514D02*
X8783343Y-9168229D01*
X8769057Y-9153943D01*
X8754771Y-9125372D01*
X8754771Y-9039657D01*
X8769057Y-9011086D01*
X8783343Y-8996800D01*
X8811914Y-8982514D01*
X8854771Y-8982514D01*
X8883343Y-8996800D01*
X8897628Y-9011086D01*
X8911914Y-9039657D01*
X8911914Y-9125372D01*
X8897628Y-9153943D01*
X8883343Y-9168229D01*
X8854771Y-9182514D01*
X8811914Y-9182514D01*
X9083343Y-9182514D02*
X9054771Y-9168229D01*
X9040486Y-9139657D01*
X9040486Y-8882514D01*
X9311914Y-9168229D02*
X9283343Y-9182514D01*
X9226200Y-9182514D01*
X9197628Y-9168229D01*
X9183343Y-9139657D01*
X9183343Y-9025372D01*
X9197628Y-8996800D01*
X9226200Y-8982514D01*
X9283343Y-8982514D01*
X9311914Y-8996800D01*
X9326200Y-9025372D01*
X9326200Y-9053943D01*
X9183343Y-9082514D01*
X9440486Y-9168229D02*
X9469057Y-9182514D01*
X9526200Y-9182514D01*
X9554771Y-9168229D01*
X9569057Y-9139657D01*
X9569057Y-9125372D01*
X9554771Y-9096800D01*
X9526200Y-9082514D01*
X9483343Y-9082514D01*
X9454771Y-9068229D01*
X9440486Y-9039657D01*
X9440486Y-9025372D01*
X9454771Y-8996800D01*
X9483343Y-8982514D01*
X9526200Y-8982514D01*
X9554771Y-8996800D01*
X9669057Y-9296800D02*
X9683343Y-9282514D01*
X9711914Y-9239657D01*
X9726200Y-9211086D01*
X9740486Y-9168229D01*
X9754771Y-9096800D01*
X9754771Y-9039657D01*
X9740486Y-8968229D01*
X9726200Y-8925372D01*
X9711914Y-8896800D01*
X9683343Y-8853943D01*
X9669057Y-8839657D01*
X2567267Y-9548867D02*
X2567267Y-9336733D01*
X2355133Y-9336733D01*
X2355133Y-9548867D01*
X2567267Y-9548867D01*
X2869057Y-9278514D02*
X3054771Y-9278514D01*
X2954771Y-9392800D01*
X2997628Y-9392800D01*
X3026200Y-9407086D01*
X3040486Y-9421372D01*
X3054771Y-9449943D01*
X3054771Y-9521372D01*
X3040486Y-9549943D01*
X3026200Y-9564229D01*
X2997628Y-9578514D01*
X2911914Y-9578514D01*
X2883343Y-9564229D01*
X2869057Y-9549943D01*
X3183343Y-9549943D02*
X3197628Y-9564229D01*
X3183343Y-9578514D01*
X3169057Y-9564229D01*
X3183343Y-9549943D01*
X3183343Y-9578514D01*
X3383343Y-9278514D02*
X3411914Y-9278514D01*
X3440486Y-9292800D01*
X3454771Y-9307086D01*
X3469057Y-9335657D01*
X3483343Y-9392800D01*
X3483343Y-9464229D01*
X3469057Y-9521372D01*
X3454771Y-9549943D01*
X3440486Y-9564229D01*
X3411914Y-9578514D01*
X3383343Y-9578514D01*
X3354771Y-9564229D01*
X3340486Y-9549943D01*
X3326200Y-9521372D01*
X3311914Y-9464229D01*
X3311914Y-9392800D01*
X3326200Y-9335657D01*
X3340486Y-9307086D01*
X3354771Y-9292800D01*
X3383343Y-9278514D01*
X3669057Y-9278514D02*
X3697628Y-9278514D01*
X3726200Y-9292800D01*
X3740486Y-9307086D01*
X3754771Y-9335657D01*
X3769057Y-9392800D01*
X3769057Y-9464229D01*
X3754771Y-9521372D01*
X3740486Y-9549943D01*
X3726200Y-9564229D01*
X3697628Y-9578514D01*
X3669057Y-9578514D01*
X3640486Y-9564229D01*
X3626200Y-9549943D01*
X3611914Y-9521372D01*
X3597628Y-9464229D01*
X3597628Y-9392800D01*
X3611914Y-9335657D01*
X3626200Y-9307086D01*
X3640486Y-9292800D01*
X3669057Y-9278514D01*
X3954771Y-9278514D02*
X3983343Y-9278514D01*
X4011914Y-9292800D01*
X4026200Y-9307086D01*
X4040486Y-9335657D01*
X4054771Y-9392800D01*
X4054771Y-9464229D01*
X4040486Y-9521372D01*
X4026200Y-9549943D01*
X4011914Y-9564229D01*
X3983343Y-9578514D01*
X3954771Y-9578514D01*
X3926200Y-9564229D01*
X3911914Y-9549943D01*
X3897628Y-9521372D01*
X3883343Y-9464229D01*
X3883343Y-9392800D01*
X3897628Y-9335657D01*
X3911914Y-9307086D01*
X3926200Y-9292800D01*
X3954771Y-9278514D01*
X4183343Y-9578514D02*
X4183343Y-9378514D01*
X4183343Y-9407086D02*
X4197628Y-9392800D01*
X4226200Y-9378514D01*
X4269057Y-9378514D01*
X4297628Y-9392800D01*
X4311914Y-9421372D01*
X4311914Y-9578514D01*
X4311914Y-9421372D02*
X4326200Y-9392800D01*
X4354771Y-9378514D01*
X4397628Y-9378514D01*
X4426200Y-9392800D01*
X4440486Y-9421372D01*
X4440486Y-9578514D01*
X4583343Y-9578514D02*
X4583343Y-9378514D01*
X4583343Y-9407086D02*
X4597628Y-9392800D01*
X4626200Y-9378514D01*
X4669057Y-9378514D01*
X4697628Y-9392800D01*
X4711914Y-9421372D01*
X4711914Y-9578514D01*
X4711914Y-9421372D02*
X4726200Y-9392800D01*
X4754771Y-9378514D01*
X4797628Y-9378514D01*
X4826200Y-9392800D01*
X4840486Y-9421372D01*
X4840486Y-9578514D01*
X5426200Y-9264229D02*
X5169057Y-9649943D01*
X5811914Y-9278514D02*
X5840486Y-9278514D01*
X5869057Y-9292800D01*
X5883343Y-9307086D01*
X5897628Y-9335657D01*
X5911914Y-9392800D01*
X5911914Y-9464229D01*
X5897628Y-9521372D01*
X5883343Y-9549943D01*
X5869057Y-9564229D01*
X5840486Y-9578514D01*
X5811914Y-9578514D01*
X5783343Y-9564229D01*
X5769057Y-9549943D01*
X5754771Y-9521372D01*
X5740486Y-9464229D01*
X5740486Y-9392800D01*
X5754771Y-9335657D01*
X5769057Y-9307086D01*
X5783343Y-9292800D01*
X5811914Y-9278514D01*
X6040486Y-9549943D02*
X6054771Y-9564229D01*
X6040486Y-9578514D01*
X6026200Y-9564229D01*
X6040486Y-9549943D01*
X6040486Y-9578514D01*
X6340486Y-9578514D02*
X6169057Y-9578514D01*
X6254771Y-9578514D02*
X6254771Y-9278514D01*
X6226200Y-9321372D01*
X6197628Y-9349943D01*
X6169057Y-9364229D01*
X6626200Y-9578514D02*
X6454771Y-9578514D01*
X6540486Y-9578514D02*
X6540486Y-9278514D01*
X6511914Y-9321372D01*
X6483343Y-9349943D01*
X6454771Y-9364229D01*
X6797628Y-9407086D02*
X6769057Y-9392800D01*
X6754771Y-9378514D01*
X6740486Y-9349943D01*
X6740486Y-9335657D01*
X6754771Y-9307086D01*
X6769057Y-9292800D01*
X6797628Y-9278514D01*
X6854771Y-9278514D01*
X6883343Y-9292800D01*
X6897628Y-9307086D01*
X6911914Y-9335657D01*
X6911914Y-9349943D01*
X6897628Y-9378514D01*
X6883343Y-9392800D01*
X6854771Y-9407086D01*
X6797628Y-9407086D01*
X6769057Y-9421372D01*
X6754771Y-9435657D01*
X6740486Y-9464229D01*
X6740486Y-9521372D01*
X6754771Y-9549943D01*
X6769057Y-9564229D01*
X6797628Y-9578514D01*
X6854771Y-9578514D01*
X6883343Y-9564229D01*
X6897628Y-9549943D01*
X6911914Y-9521372D01*
X6911914Y-9464229D01*
X6897628Y-9435657D01*
X6883343Y-9421372D01*
X6854771Y-9407086D01*
X7197628Y-9578514D02*
X7026200Y-9578514D01*
X7111914Y-9578514D02*
X7111914Y-9278514D01*
X7083343Y-9321372D01*
X7054771Y-9349943D01*
X7026200Y-9364229D01*
X7311914Y-9278514D02*
X7311914Y-9335657D01*
X7426200Y-9278514D02*
X7426200Y-9335657D01*
X7869057Y-9692800D02*
X7854771Y-9678514D01*
X7826200Y-9635657D01*
X7811914Y-9607086D01*
X7797628Y-9564229D01*
X7783343Y-9492800D01*
X7783343Y-9435657D01*
X7797628Y-9364229D01*
X7811914Y-9321372D01*
X7826200Y-9292800D01*
X7854771Y-9249943D01*
X7869057Y-9235657D01*
X8140486Y-9578514D02*
X7969057Y-9578514D01*
X8054771Y-9578514D02*
X8054771Y-9278514D01*
X8026200Y-9321372D01*
X7997628Y-9349943D01*
X7969057Y-9364229D01*
X8497628Y-9578514D02*
X8497628Y-9278514D01*
X8626200Y-9578514D02*
X8626200Y-9421372D01*
X8611914Y-9392800D01*
X8583343Y-9378514D01*
X8540486Y-9378514D01*
X8511914Y-9392800D01*
X8497628Y-9407086D01*
X8811914Y-9578514D02*
X8783343Y-9564229D01*
X8769057Y-9549943D01*
X8754771Y-9521372D01*
X8754771Y-9435657D01*
X8769057Y-9407086D01*
X8783343Y-9392800D01*
X8811914Y-9378514D01*
X8854771Y-9378514D01*
X8883343Y-9392800D01*
X8897628Y-9407086D01*
X8911914Y-9435657D01*
X8911914Y-9521372D01*
X8897628Y-9549943D01*
X8883343Y-9564229D01*
X8854771Y-9578514D01*
X8811914Y-9578514D01*
X9083343Y-9578514D02*
X9054771Y-9564229D01*
X9040486Y-9535657D01*
X9040486Y-9278514D01*
X9311914Y-9564229D02*
X9283343Y-9578514D01*
X9226200Y-9578514D01*
X9197628Y-9564229D01*
X9183343Y-9535657D01*
X9183343Y-9421372D01*
X9197628Y-9392800D01*
X9226200Y-9378514D01*
X9283343Y-9378514D01*
X9311914Y-9392800D01*
X9326200Y-9421372D01*
X9326200Y-9449943D01*
X9183343Y-9478514D01*
X9426200Y-9692800D02*
X9440486Y-9678514D01*
X9469057Y-9635657D01*
X9483343Y-9607086D01*
X9497628Y-9564229D01*
X9511914Y-9492800D01*
X9511914Y-9435657D01*
X9497628Y-9364229D01*
X9483343Y-9321372D01*
X9469057Y-9292800D01*
X9440486Y-9249943D01*
X9426200Y-9235657D01*
M02*
